<svg xmlns="http://www.w3.org/2000/svg" viewBox="0 0 500 500"><g id="freepik--background-complete--inject-43"><rect x="451" y="307.19" width="33.19" height="8.14" style="fill:#ebebeb"></rect><rect x="380.56" y="58.17" width="83.44" height="138.12" transform="translate(18.85 -50.97) rotate(7.06)" style="fill:#e0e0e0"></rect><rect x="377.81" y="57.83" width="83.44" height="138.12" transform="translate(18.79 -50.63) rotate(7.06)" style="fill:#ebebeb"></rect><rect x="381.36" y="60.63" width="76.33" height="132.52" transform="translate(18.79 -50.63) rotate(7.06)" style="fill:#fafafa"></rect><rect x="395.89" y="77.83" width="46.94" height="98.08" transform="translate(18.79 -50.61) rotate(7.06)" style="fill:#ebebeb"></rect><path d="M394.31,138.21c1-9.11,10.29-17,19.45-17.13,4.37-.07,8.83,1.35,13,.2,7.53-2,11-11.28,18.54-13.21L437,178.46,390,172.65Z" style="fill:#e0e0e0"></path><path d="M159.55,395.87a1.77,1.77,0,0,1-1.77-1.77v-7.17a1.76,1.76,0,0,1,1.33-1.7l1.1-33a1.75,1.75,0,0,1-1-1.77l.67-7.17a1.77,1.77,0,0,1,1.76-1.6h1.17a4.28,4.28,0,0,0,4.07-2.94,3.93,3.93,0,0,0,.21-1.24l.33-12.47.06-2.64h8.26l.06,2.64.33,12.47a3.94,3.94,0,0,0,.22,1.24,4.28,4.28,0,0,0,4.07,2.94h1.16a1.77,1.77,0,0,1,1.76,1.6l.67,7.17a1.75,1.75,0,0,1-1,1.77l1.1,33a1.76,1.76,0,0,1,1.33,1.7v7.17a1.77,1.77,0,0,1-1.76,1.77Z" style="fill:#e0e0e0"></path><path d="M160.67,343.44l-.67,7.11a1,1,0,0,0,.55,1l.49.22-1.13,34.13-.59.15a1,1,0,0,0-.73.92v7.17a1,1,0,0,0,1,.95,27.57,27.57,0,0,1,24.09,0,1,1,0,0,0,1-.95v-7.17a1,1,0,0,0-.72-.92l-.59-.15-1.14-34.13.49-.22a1,1,0,0,0,.56-1l-.67-7.11Z" style="fill:#ebebeb"></path><path d="M167.36,325.06a.71.71,0,0,1-.71-.71h0a.71.71,0,0,1,.71-.71h8.46a.71.71,0,0,1,.71.71h0a.71.71,0,0,1-.71.71Z" style="fill:#e0e0e0"></path><path d="M168.11,318.29a1.3,1.3,0,0,0-1.19,1.38v3.43h9.34v-3.43a1.29,1.29,0,0,0-1.18-1.38Z" style="fill:#e0e0e0"></path><path d="M166.86,338.77a4.14,4.14,0,0,0,.2-1,2.18,2.18,0,0,0,0-.25l0-.82.12-4.79.14-5.26,0-1.06,0-.54h8.38l0,.54,0,1.06.14,5.26.12,4.79,0,.82c0,.08,0,.16,0,.25a3.72,3.72,0,0,0,.21,1Z" style="fill:#ebebeb"></path><polygon points="167.36 326.66 167.38 325.6 175.8 325.6 175.82 326.66 167.36 326.66" style="fill:#fafafa"></polygon><path d="M167.06,337.78a2.18,2.18,0,0,0,0-.25l0-.82h9l0,.82c0,.08,0,.16,0,.25Z" style="fill:#fafafa"></path><polygon points="163.82 383 164.44 354.3 178.74 354.3 179.37 383 163.82 383" style="fill:#fff"></polygon><path d="M206.16,365.45a10.05,10.05,0,0,0-.84,4,10.55,10.55,0,0,0,6.94,9.8,10.54,10.54,0,0,0,8.2,0,10.57,10.57,0,0,0,6.94-9.8,10.06,10.06,0,0,0-.85-4Z" style="fill:#ebebeb"></path><path d="M216.36,380.36a12.69,12.69,0,0,1-4.19-.85,10.81,10.81,0,0,1-7.09-10,10.34,10.34,0,0,1,.87-4.13l.06-.14H226.7l.06.14a10.17,10.17,0,0,1,.87,4.13,10.8,10.8,0,0,1-7.09,10A12.6,12.6,0,0,1,216.36,380.36Zm-10.05-14.68a10,10,0,0,0-.76,3.81,10.34,10.34,0,0,0,6.79,9.59,10.36,10.36,0,0,0,8,0,10.35,10.35,0,0,0,6.8-9.59,9.82,9.82,0,0,0-.77-3.81Z" style="fill:#e0e0e0"></path><path d="M216.36,379.91a12.52,12.52,0,0,1-4.1-.83,10.55,10.55,0,0,1-6.94-9.8,10.05,10.05,0,0,1,.84-4h-.63a10.31,10.31,0,0,0-.83,4,11,11,0,0,0,7.23,10.14c2.14.83,3.45,2.32,3.45,3.92v10c0,.81-.93,1.5-2.19,1.61l-5.81.52c-.23,0-.4.15-.38.3s.2.26.44.26h17.84c.23,0,.42-.11.44-.26s-.15-.28-.38-.3l-5.81-.52c-1.26-.11-2.2-.8-2.2-1.61v-10c0-1.6,1.31-3.09,3.45-3.92A11,11,0,0,0,228,369.28a10.32,10.32,0,0,0-.84-4h-.63a10.06,10.06,0,0,1,.85,4,10.57,10.57,0,0,1-6.94,9.8A12.6,12.6,0,0,1,216.36,379.91Z" style="fill:#e0e0e0"></path><path d="M93.49,36.09s6.82,34.45,11,34.21c5.39-.3,23.2-29.37,23.2-29.37S96.52,36.61,93.49,36.09Z" style="fill:#f5f5f5"></path><path d="M131.08,41.24s9.82,33.74,14,33.14c5.34-.79,20.51-31.32,20.51-31.32S134.14,41.49,131.08,41.24Z" style="fill:#ebebeb"></path><path d="M168.86,43.12s12.85,32.46,16.92,31.48c5.25-1.26,17.64-32.77,17.64-32.77S171.94,43.1,168.86,43.12Z" style="fill:#f5f5f5"></path><path d="M205,41.86s14.66,31.49,18.66,30.28c5.17-1.57,15.69-34.51,15.69-34.51S208.06,41.66,205,41.86Z" style="fill:#ebebeb"></path><path d="M241.44,37.44s17.83,29.8,21.69,28.18c5-2.09,12.12-35.19,12.12-35.19S244.47,36.92,241.44,37.44Z" style="fill:#f5f5f5"></path><path d="M278.74,29.85s20,28.37,23.76,26.46c4.81-2.46,9.42-36,9.42-36S281.73,29.1,278.74,29.85Z" style="fill:#ebebeb"></path><path d="M56.91,27.63S61,62.72,65.21,62.82c5.39.12,25.42-27.18,25.42-27.18S59.89,28.39,56.91,27.63Z" style="fill:#ebebeb"></path><path d="M342.62,8.71l-.81.35-2.37,1-3.85,1.61-2.47,1-2.83,1.09-6.67,2.57-8,2.85c-1.43.52-2.94,1-4.48,1.51l-4.79,1.57c-.82.27-1.65.55-2.5.81l-2.59.78-5.38,1.62a441.41,441.41,0,0,1-52.56,11.87c-10,1.58-20.59,3-31.59,4s-22.42,1.57-34.13,1.75l-8.74,0L160.25,43l-2.14,0L156,42.84l-4.23-.18-4.19-.18-4.15-.27c-2.76-.21-5.49-.33-8.19-.59l-8-.73c-2.64-.26-5.25-.6-7.83-.89l-3.85-.45L111.74,39c-10.07-1.32-19.55-3.13-28.4-4.9S66.34,30.28,59,28.2l-5.41-1.51c-1.77-.48-3.45-1-5.11-1.54-3.3-1-6.43-1.95-9.3-3s-5.58-1.86-8-2.76L24.39,17c-1-.38-1.95-.72-2.84-1.07l-2.47-1-3.87-1.57-2.38-1L12,12l.82.31,2.4.94,3.88,1.54,2.48,1c.88.35,1.84.68,2.84,1.05l6.71,2.46c2.45.88,5.16,1.74,8,2.72s6,1.92,9.31,2.94c1.65.49,3.34,1,5.1,1.53L59,28c7.39,2.06,15.57,4,24.39,5.88,8.85,1.75,18.32,3.55,28.38,4.86l3.79.53,3.85.45c2.58.28,5.18.62,7.83.87l8,.73c2.69.26,5.43.38,8.18.58l4.15.28,4.19.17,4.22.18,2.12.09,2.14,0,8.61.15,8.72-.05c11.7-.18,23.12-.79,34.11-1.74S233.25,38.6,243.27,37a444.61,444.61,0,0,0,52.54-11.79l5.38-1.6,2.59-.78,2.5-.8,4.79-1.56c1.55-.5,3.05-1,4.48-1.5l8-2.82,6.68-2.54,2.84-1.07,2.47-1L339.42,10l2.38-1Z" style="fill:#e0e0e0"></path><rect x="218.21" y="178.73" width="31.32" height="8.01" style="fill:#ebebeb"></rect><path d="M236.28,195.17s0,0,0-.14,0-.24,0-.41c0-.38,0-.91,0-1.58,0-1.38,0-3.37-.05-5.87l.09.09-31.32.06.16-.15h0v8L205,195l22.32.07,6.59,0,1.78,0h.63s0,0-.14,0h-.45l-1.75,0-6.55,0-22.43.06h-.15v-.15c0-1.28,0-2.6,0-3.94v-4h0c.32-.31.09-.09.16-.16l31.32.06h.1v.1c0,2.52,0,4.53,0,5.93,0,.66,0,1.18,0,1.55,0,.16,0,.29,0,.4S236.29,195.18,236.28,195.17Z" style="fill:#e0e0e0"></path><rect x="36.68" y="96.37" width="31.32" height="8.01" style="fill:#ebebeb"></rect><path d="M54.76,112.81a.85.85,0,0,1,0-.15c0-.1,0-.24,0-.41,0-.37,0-.9,0-1.57,0-1.38,0-3.37-.06-5.88l.1.1L23.44,105l.16-.16h0v4c0,1.34,0,2.65,0,3.94l-.15-.15,22.32.07,6.59,0,1.78,0h0l-1.75,0-6.55,0L23.44,113h-.16v-8.13h0c.32-.31.09-.08.16-.15l31.32.06h.1v.09c0,2.53,0,4.54-.06,5.93,0,.67,0,1.19,0,1.56,0,.16,0,.29,0,.39A.6.6,0,0,1,54.76,112.81Z" style="fill:#e0e0e0"></path><rect x="449.42" y="216.49" width="31.32" height="8.01" style="fill:#ebebeb"></rect><path d="M467.49,232.94a1.36,1.36,0,0,0,0-.15c0-.11,0-.24,0-.41,0-.38,0-.9,0-1.58,0-1.38,0-3.37-.05-5.87l.09.09-31.31.06c.07-.07-.17.16.15-.15h0v8l-.16-.16,22.32.07,6.59.05,1.78,0h0l-1.75,0-6.55.05-22.43.07H436v-.15c0-1.29,0-2.61,0-3.94v-4.06h0l.17-.16,31.31.06h.1v.1c0,2.53,0,4.53,0,5.93,0,.66,0,1.18,0,1.55,0,.17,0,.3,0,.4S467.5,232.94,467.49,232.94Z" style="fill:#e0e0e0"></path><rect x="317.17" y="371.43" width="31.32" height="8.01" style="fill:#ebebeb"></rect><path d="M335.25,387.88a.42.42,0,0,1,0-.15c0-.11,0-.24,0-.41,0-.38,0-.9,0-1.58,0-1.38,0-3.37-.05-5.87l.1.09-31.32.06.15-.15h0v8l-.16-.15,22.32.06,6.59,0,1.78,0h0l-1.74,0-6.56,0-22.43.07h-.15v-4.09c0-.67,0-1.34,0-2v-2h0l.17-.16,31.32.06h.09v.1c0,2.53,0,4.53,0,5.93,0,.66,0,1.18,0,1.55,0,.17,0,.3,0,.4S335.25,387.88,335.25,387.88Z" style="fill:#e0e0e0"></path><rect x="116.77" y="160.48" width="33.19" height="8.14" style="fill:#ebebeb"></rect><path d="M64.58,216.85s0,0,0-.15,0-.27,0-.45c0-.41,0-1,0-1.72,0-1.51,0-3.67-.06-6.4l.1.1-32.77.07c.08-.08-.17.16.17-.17h0v4.42c0,1.46,0,2.89,0,4.29l-.16-.16,23.36.07,6.89.05,1.86,0h.66s0,0-.15,0l-.47,0-1.82,0-6.86,0L31.81,217h-.16v-8.88h0l.17-.17,32.77.07h.11v.1c0,2.75,0,4.94-.06,6.46,0,.73,0,1.29,0,1.7,0,.17,0,.31,0,.43S64.59,216.86,64.58,216.85Z" style="fill:#e0e0e0"></path><path d="M69,208.13a.68.68,0,0,1,0-.17c0-.12,0-.28,0-.46,0-.43,0-1,0-1.75,0-1.53,0-3.69-.06-6.35l.12.12-19.69,0,.16-.17h0v8.71l-.16-.16,14.08.07,4.11.05,1.1,0a1.87,1.87,0,0,1,.4,0l-.36,0-1.07,0-4.07,0-14.19.08h-.16v-.16c0-1.36,0-2.77,0-4.23v-4.48h0l.17-.17,19.69.05h.12v.12c0,2.69-.05,4.88-.07,6.42,0,.73,0,1.3,0,1.73S69,208.14,69,208.13Z" style="fill:#e0e0e0"></path><path d="M345.93,69.63s0-.06,0-.16,0-.26,0-.45c0-.41,0-1,0-1.71,0-1.51,0-3.68-.06-6.41l.1.1-32.77.07c.08-.07-.16.17.17-.17h0v8.71l-.17-.17,23.36.08,6.89,0,1.86,0h.05l-1.83,0-6.86,0-23.47.07H313V60.92h0l.17-.17,32.77.07H346v.1c0,2.76-.05,4.95-.06,6.47,0,.72,0,1.29,0,1.69,0,.18,0,.32,0,.43S345.94,69.63,345.93,69.63Z" style="fill:#e0e0e0"></path><path d="M350.38,60.9s0-.06,0-.16,0-.28,0-.47c0-.43,0-1,0-1.75,0-1.53,0-3.69-.06-6.34l.12.12-19.69,0,.16-.16h0V60.9l-.16-.16,14.08.08,4.11,0,1.1,0,.4,0a1.41,1.41,0,0,1-.36,0l-1.07,0-4.07.05-14.19.07h-.16V60.9c0-1.35,0-2.77,0-4.23V52.19h0l.17-.17,19.69.05h.12v.12c0,2.68-.05,4.87-.07,6.42,0,.72,0,1.3,0,1.72S350.39,60.91,350.38,60.9Z" style="fill:#e0e0e0"></path><path d="M204.51,454.51c-8.85-3-19.57-2.31-23.52,2.06-1.18,1.3-1.94,2.94-3.1,4.26-4.89,5.5-14.74,3.4-19.91,8.63a6.46,6.46,0,0,0-2,4.67c.18,4.26,5.31,6.22,9.51,7a166.21,166.21,0,0,0,57.41.1,23.06,23.06,0,0,0,8.15-2.57c2.44-1.5,4.4-4.09,4.38-7,0-3.61-3.11-6.53-6.43-7.94s-7-1.75-10.42-2.89c-4-1.31-7.5-3.66-11.33-5.33s-8.29-2.62-12.15-1" style="fill:#ebebeb"></path><ellipse cx="127.85" cy="468.17" rx="8.58" ry="3.62" style="fill:#ebebeb"></ellipse></g><g id="freepik--Floor--inject-43"><path d="M478.22,395.87c0,.14-102.19.26-228.21.26S21.78,396,21.78,395.87s102.16-.26,228.23-.26S478.22,395.72,478.22,395.87Z" style="fill:#263238"></path></g><g id="freepik--Bottles--inject-43"><path d="M42.14,390.13l.3,1.77c0,2.23-1.3,3.76-2.9,3.76H22.41c-1.61,0-2.9-1.53-2.9-3.76l.3-1.77V366.48l-.3-.52a6.73,6.73,0,0,1,2.4-5.19l3.57-3A2,2,0,0,0,26.2,356c-.12-1-.21-2.13-.23-3.26,0-.63,0-1.26,0-1.9,0-1.36.14-2.75.3-4.11,0-.05,0-.11,0-.17,0-.42.11-.84.17-1.25a.36.36,0,0,1,0-.11c.16-1,.35-2,.58-3a.71.71,0,0,0-.26-.72.86.86,0,0,1-.32-.74l.32-4.27h8.36l.33,4.27a.84.84,0,0,1-.33.74.73.73,0,0,0-.25.72l.21,1c.09.42.16.85.24,1.28,0,.24.09.49.13.75h0a.37.37,0,0,1,0,.11,6,6,0,0,1,.09.63l.09.62h0a1,1,0,0,1,0,.16c.05.5.11,1,.15,1.51l.06.71,0,.8c0,.36,0,.72,0,1.09,0,.64,0,1.27,0,1.9,0,1.13-.11,2.23-.23,3.26a2,2,0,0,0,.72,1.85l3.57,3a6.73,6.73,0,0,1,2.4,5.19l-.3.52Z" style="fill:#90CAF9"></path><path d="M36,350.8H26c0-1.36.14-2.75.3-4.11,0-.05,0-.11,0-.17,0-.42.11-.84.17-1.25a.36.36,0,0,1,0-.11c.16-1,.35-2,.58-3a.71.71,0,0,0-.26-.72.86.86,0,0,1-.32-.74l.32-4.27h8.36l.33,4.27a.84.84,0,0,1-.33.74.73.73,0,0,0-.25.72l.21,1c.09.42.16.85.24,1.28,0,.24.09.49.13.75h0a.37.37,0,0,1,0,.11,6,6,0,0,1,.09.63l.09.62h0a1,1,0,0,1,0,.16c.05.5.11,1,.15,1.51l.06.71,0,.8C36,350.07,36,350.43,36,350.8Z" style="fill:#455a64"></path><path d="M31,367.64l-10.28-.28-.54-1.52,0-.06a6.05,6.05,0,0,1,2.17-4.51l2.8-2.32H36.86l2.8,2.32a6.09,6.09,0,0,1,2.17,4.51l0,.06-.54,1.52Z" style="fill:#90CAF9"></path><path d="M31,393.64A26.82,26.82,0,0,0,22.41,395c-1.29,0-2.27-1.31-2.29-3.07l.53-3.12,10.32,1,10.33-1,.53,3.12c0,1.76-1,3.07-2.29,3.07A26.83,26.83,0,0,0,31,393.64Z" style="fill:#90CAF9"></path><rect x="19.81" y="366.47" width="22.33" height="23.66" style="fill:#455a64"></rect><path d="M31,376.61a25.88,25.88,0,0,0-6.3.78c-.28-1.18-.55-2.35-.82-3.53a29.61,29.61,0,0,1,14.25,0c-.28,1.18-.55,2.35-.82,3.53A25.9,25.9,0,0,0,31,376.61Z" style="fill:#fff"></path><path d="M21.69,388.84c-.06,0-.1-4.66-.1-10.41s0-10.42.1-10.42.1,4.67.1,10.42S21.75,388.84,21.69,388.84Z" style="fill:#fff"></path><path d="M27.41,357.78a1.46,1.46,0,0,1-.13.36,4.68,4.68,0,0,1-.55.88,14.35,14.35,0,0,1-2.49,2.31A9.43,9.43,0,0,0,22,363.77a7.49,7.49,0,0,0-.52,1.29,1.09,1.09,0,0,1,0-.38,4.17,4.17,0,0,1,.36-1,8.51,8.51,0,0,1,2.26-2.53,17.49,17.49,0,0,0,2.51-2.25A13.55,13.55,0,0,0,27.41,357.78Z" style="fill:#fff"></path><path d="M28.34,342.06a3.1,3.1,0,0,1-.12.53c-.09.33-.21.82-.34,1.42a28.63,28.63,0,0,0-.64,4.77,29.07,29.07,0,0,0,.18,4.82c.08.61.15,1.11.21,1.45a2.32,2.32,0,0,1,.06.53,3.12,3.12,0,0,1-.14-.52c-.08-.33-.18-.83-.27-1.44a24,24,0,0,1-.25-4.84,25.19,25.19,0,0,1,.7-4.8c.16-.6.3-1.09.41-1.41A2.15,2.15,0,0,1,28.34,342.06Z" style="fill:#fff"></path><path d="M35.39,336.48c0,.06-2,.1-4.42.1s-4.42,0-4.42-.1,2-.1,4.42-.1S35.39,336.42,35.39,336.48Z" style="fill:#fafafa"></path><path d="M35,341.76c0,.05-1.84.1-4.11.1s-4.1-.05-4.1-.1a38.45,38.45,0,0,1,4.1-.11A38.72,38.72,0,0,1,35,341.76Z" style="fill:#263238"></path><path d="M40.46,394.81l-.23,0-.66,0-2.43,0-8,0h-5.4c-.32,0-.64,0-.94,0a2.44,2.44,0,0,1-1.61-.55,2.65,2.65,0,0,1-.74-1.19,4.63,4.63,0,0,1-.18-1,4,4,0,0,1,0-.66.82.82,0,0,1,0-.23s0,.32.09.88a4.44,4.44,0,0,0,.21,1,2.5,2.5,0,0,0,.73,1.12,2.32,2.32,0,0,0,1.51.49c.3,0,.61,0,.93,0h5.41l8,0,2.43,0,.66,0Z" style="fill:#fff"></path><rect x="24.92" y="378.92" width="12.11" height="2.22" style="fill:#fff"></rect><path d="M181.78,416l1.94-.34c2.45,0,4.13,1.43,4.13,3.19v18.8c0,1.76-1.68,3.18-4.13,3.18l-1.94-.33h-26l-.57.33a7.36,7.36,0,0,1-5.69-2.63l-3.25-3.92a2.25,2.25,0,0,0-2-.79,33.52,33.52,0,0,1-3.57.25c-.69,0-1.38,0-2.09,0-1.5,0-3-.15-4.52-.33h-.18l-1.37-.2-.12,0q-1.69-.26-3.3-.63a.76.76,0,0,0-.78.28.94.94,0,0,1-.82.35l-4.68-.35v-9.18l4.68-.36a1,1,0,0,1,.82.36.78.78,0,0,0,.78.28l1.06-.23c.46-.1.93-.18,1.41-.26.26-.06.54-.1.82-.15h.13c.23,0,.45-.08.69-.1l.68-.1h.18c.55-.06,1.11-.13,1.66-.17l.79-.07.87,0c.4,0,.8,0,1.2,0,.71,0,1.4,0,2.09,0a33.52,33.52,0,0,1,3.57.25,2.27,2.27,0,0,0,2-.79l3.25-3.92a7.37,7.37,0,0,1,5.69-2.64l.57.34Z" style="fill:#e0e0e0"></path><path d="M138.6,422.72v11c-1.5,0-3-.15-4.52-.33h-.18l-1.37-.2-.12,0q-1.69-.26-3.3-.63a.76.76,0,0,0-.78.28.94.94,0,0,1-.82.35l-4.68-.35v-9.18l4.68-.36a1,1,0,0,1,.82.36.78.78,0,0,0,.78.28l1.06-.23c.46-.1.93-.18,1.41-.26.26-.06.54-.1.82-.15h.13c.23,0,.45-.08.69-.1l.68-.1h.18c.55-.06,1.11-.13,1.66-.17l.79-.07.87,0C137.8,422.74,138.2,422.73,138.6,422.72Z" style="fill:#90CAF9"></path><path d="M156.68,433.52v-3.37h-6.42c-.2,0-1.79.09-3.09.17a1.82,1.82,0,0,0-1.7,1.81h0l2.08,2.55,2.54,3.07a6.64,6.64,0,0,0,5,2.38l.06,0,1.67-.59Z" style="fill:#ffbf9d"></path><path d="M185.63,428.22H181.4l-1,11.33,3.42.59c1.93,0,3.37-1.1,3.37-2.52A29.49,29.49,0,0,1,185.63,428.22Z" style="fill:#ffbf9d"></path><rect x="155.8" y="415.96" width="25.98" height="24.51" style="fill:#90CAF9"></rect><path d="M166.94,428.22a28.44,28.44,0,0,0,.85,6.92l-3.87.9a32.33,32.33,0,0,1,0-15.64l3.87.89A28.52,28.52,0,0,0,166.94,428.22Z" style="fill:#fff"></path><path d="M180.36,438.41c0,.06-5.12.11-11.43.11s-11.43,0-11.43-.11,5.11-.11,11.43-.11S180.36,438.35,180.36,438.41Z" style="fill:#fff"></path><path d="M146.26,432.13a1.28,1.28,0,0,1,.39.14,5,5,0,0,1,1,.6,15.8,15.8,0,0,1,2.54,2.74,10.37,10.37,0,0,0,2.68,2.49,7.81,7.81,0,0,0,1.41.57,1.27,1.27,0,0,1-.41,0,4.11,4.11,0,0,1-1.08-.39,9.25,9.25,0,0,1-2.78-2.49,18.74,18.74,0,0,0-2.46-2.75A12.74,12.74,0,0,0,146.26,432.13Z" style="fill:#fff"></path><path d="M129,431.11a3.41,3.41,0,0,1,.58.13c.36.1.9.23,1.56.38a32.11,32.11,0,0,0,5.24.7,31,31,0,0,0,5.28-.2c.68-.09,1.22-.16,1.59-.23a2.6,2.6,0,0,1,.59-.07,3.93,3.93,0,0,1-.57.16c-.37.09-.91.19-1.59.3a27.72,27.72,0,0,1-5.31.27,26.92,26.92,0,0,1-5.27-.78c-.66-.16-1.19-.32-1.55-.44A2.54,2.54,0,0,1,129,431.11Z" style="fill:#fff"></path><path d="M122.88,423.37c.06,0,.11,2.17.11,4.85s0,4.85-.11,4.85-.11-2.17-.11-4.85S122.82,423.37,122.88,423.37Z" style="fill:#fafafa"></path><path d="M128.67,423.86a84.62,84.62,0,0,1,0,9c-.06,0-.11-2-.11-4.51S128.61,423.86,128.67,423.86Z" style="fill:#263238"></path><path d="M186.91,417.81a.72.72,0,0,1,0,.25c0,.19,0,.43,0,.73,0,.66,0,1.56,0,2.66,0,2.28,0,5.38,0,8.8,0,1.72,0,3.35,0,4.85,0,.37,0,.73,0,1.09s0,.69,0,1a2.75,2.75,0,0,1-.6,1.76,3,3,0,0,1-1.31.81,4.56,4.56,0,0,1-1.14.2,7.3,7.3,0,0,1-.73,0,.72.72,0,0,1-.25,0s.35,0,1-.09a5.74,5.74,0,0,0,1.11-.24,2.78,2.78,0,0,0,1.23-.8,2.56,2.56,0,0,0,.53-1.66c0-.33,0-.66,0-1v-5.93c0-3.43,0-6.53,0-8.81,0-1.1,0-2,0-2.66,0-.3,0-.54,0-.73A1.27,1.27,0,0,1,186.91,417.81Z" style="fill:#fff"></path><rect x="164.04" y="427" width="13.3" height="2.44" transform="translate(-257.53 598.9) rotate(-90)" style="fill:#fff"></rect></g><g id="freepik--Cushion--inject-43"><path d="M467.81,452.94c-7.32-7.11-19.93-20.06-34.77-23-11.44-2.26-22-.06-33.05,2.66s-22.81,5.76-31.87,9.86l-.44.22-1.62.87c-2.15,1.14-2.65,2.85-1.18,4.24,7.29,6.9,17.67,13.77,28.35,19.82,5.85,3.31,19.38,9.66,27.43,7.85,11.42-2.56,23.19-5.82,33.71-8,7.66-1.57,16.35-3.94,17.22-8.07C472.07,457.15,469.91,455,467.81,452.94Z" style="fill:#e0e0e0"></path><path d="M465.37,447.93c-7.32-7.11-19.93-20.06-34.77-23-11.44-2.26-22-.06-33.05,2.66s-22.81,5.76-31.87,9.86l-.44.22-1.62.87c-2.15,1.14-2.65,2.85-1.18,4.24,7.29,6.9,17.67,13.77,28.36,19.82,5.84,3.31,19.37,9.66,27.43,7.86,11.41-2.57,23.18-5.83,33.7-8,7.66-1.57,16.35-3.94,17.22-8.07C469.63,452.15,467.47,450,465.37,447.93Z" style="fill:#455a64"></path><path d="M412.78,468.28s-.15-.13-.39-.41l-1-1.22c-.42-.55-1-1.15-1.69-1.87-.33-.35-.68-.75-1.08-1.14l-1.27-1.22a78.07,78.07,0,0,0-6.65-5.59A103.43,103.43,0,0,0,391.8,451a97.43,97.43,0,0,0-9.49-4.8,66.64,66.64,0,0,0-8.17-2.92l-1.7-.48c-.54-.13-1.06-.22-1.54-.33-1-.2-1.79-.39-2.48-.46l-1.57-.22a3.36,3.36,0,0,1-.55-.11,2.3,2.3,0,0,1,.55,0l1.6.13a21.92,21.92,0,0,1,2.5.39c.49.09,1,.17,1.56.29l1.72.44a64,64,0,0,1,8.26,2.85,91.69,91.69,0,0,1,9.56,4.79,98,98,0,0,1,8.89,5.94,70.62,70.62,0,0,1,6.61,5.7l1.26,1.25c.39.41.73.81,1.06,1.18a24.11,24.11,0,0,1,1.64,1.93l1,1.28A2.49,2.49,0,0,1,412.78,468.28Z" style="fill:#263238"></path></g><g id="freepik--Shelf--inject-43"><rect x="81.69" y="104.75" width="112.45" height="14.25" style="fill:#ae7461"></rect><path d="M189.48,99.81A5.54,5.54,0,0,1,198,96.22a9.21,9.21,0,0,1-8.33,3.57" style="fill:#455a64"></path><path d="M190.71,100.89a3.92,3.92,0,0,1-.79,4.39,9.88,9.88,0,0,1-4.06,2.4,7.26,7.26,0,0,1,1.22-4.43,7.15,7.15,0,0,1,3.66-2.79" style="fill:#455a64"></path><path d="M186.93,94.34a6.4,6.4,0,0,1-8.37,3.88A8.66,8.66,0,0,1,182,94.28a4.17,4.17,0,0,1,4.91.51" style="fill:#455a64"></path><path d="M187.36,92.64a3.74,3.74,0,0,1,4-2,6.5,6.5,0,0,1,4,2.45,5.73,5.73,0,0,1-7.79-1" style="fill:#455a64"></path><path d="M192.25,107.47a5.13,5.13,0,0,1,0,5.58,9.13,9.13,0,0,1-4.65,3.5,11.94,11.94,0,0,1,.64-5.79,6.09,6.09,0,0,1,4.26-3.72" style="fill:#455a64"></path><path d="M188.6,88.42a4.61,4.61,0,0,0-7-2.09,4,4,0,0,0,7,1.82" style="fill:#455a64"></path><path d="M187.84,83.6a6,6,0,0,0,8.53-2.82,13.52,13.52,0,0,0-3.53-.77,5.85,5.85,0,0,0-3.48.8,3.17,3.17,0,0,0-1.52,2.79" style="fill:#455a64"></path><path d="M184.73,81.67a4.91,4.91,0,0,0,1.76-7.37,10.3,10.3,0,0,0-3.13,4,3.86,3.86,0,0,0-.42,1.85,1.72,1.72,0,0,0,1,1.5" style="fill:#455a64"></path><path d="M176.37,91s0,0,0-.12l.06-.36c0-.31.13-.77.26-1.36a12.38,12.38,0,0,1,1.93-4.66,7.72,7.72,0,0,1,2.59-2.28,5.37,5.37,0,0,1,3.85-.47,4.57,4.57,0,0,1,1.88,1,4,4,0,0,1,1.19,1.84,8.16,8.16,0,0,1-.14,4.66,32.31,32.31,0,0,0-1.21,4.66,7.44,7.44,0,0,0,.07,2.31,4.71,4.71,0,0,0,.91,2,6.58,6.58,0,0,0,1.6,1.36,9.38,9.38,0,0,1,1.54,1.19,6.32,6.32,0,0,1,1.68,3,6.1,6.1,0,0,1,0,2.85,6.54,6.54,0,0,1-.83,2,8.29,8.29,0,0,1-1.18,1.43l.1-.07.27-.24a5.83,5.83,0,0,0,.89-1.07,6.45,6.45,0,0,0,.88-2,6.22,6.22,0,0,0,0-2.92,6.55,6.55,0,0,0-1.71-3.09c-.89-.95-2.24-1.45-3.11-2.54a5.64,5.64,0,0,1-.92-4.18,33.88,33.88,0,0,1,1.2-4.62,8.34,8.34,0,0,0,.15-4.79,4.45,4.45,0,0,0-1.27-1.94,4.91,4.91,0,0,0-2-1,5.48,5.48,0,0,0-4,.51,7.62,7.62,0,0,0-2.64,2.36,10.46,10.46,0,0,0-1.32,2.6,14.81,14.81,0,0,0-.56,2.13c-.12.59-.18,1.06-.22,1.37q0,.23,0,.36A1.16,1.16,0,0,0,176.37,91Z" style="fill:#263238"></path><path d="M147.62,100.37a4.58,4.58,0,0,1-.8-1.43,3.86,3.86,0,0,1,1-4.08,4,4,0,0,1,1.23-.79,4.59,4.59,0,0,1,1.55-.3c1.11-.06,2.3.2,3.59,0a3.93,3.93,0,0,0,1.86-.65,2.94,2.94,0,0,0,1.14-1.71c.37-1.36.12-2.84.66-4.16a3.82,3.82,0,0,1,1.31-1.61,4.91,4.91,0,0,1,1.86-.81,5.21,5.21,0,0,1,3.73.64A8,8,0,0,1,167.29,88a9.19,9.19,0,0,1,1.28,2.8,33.19,33.19,0,0,1,.83,4.43c.07.51.13.92.17,1.22,0,.12,0,.23.05.31s0,.11,0,.11,0,0,0-.11a2.11,2.11,0,0,0,0-.32l-.12-1.22a31.59,31.59,0,0,0-.75-4.47,9.5,9.5,0,0,0-1.29-2.86,8.16,8.16,0,0,0-2.58-2.51,6,6,0,0,0-1.84-.7,5.36,5.36,0,0,0-4,.87,4,4,0,0,0-1.38,1.7c-.58,1.42-.32,2.91-.67,4.2a2.72,2.72,0,0,1-1,1.59,3.88,3.88,0,0,1-1.76.62c-1.23.15-2.43-.1-3.57,0a4.72,4.72,0,0,0-1.61.34,4.05,4.05,0,0,0-1.27.83A3.93,3.93,0,0,0,146.53,97a4,4,0,0,0,.2,1.94,3.76,3.76,0,0,0,.6,1.09A1.76,1.76,0,0,0,147.62,100.37Z" style="fill:#263238"></path><path d="M157.39,88.91a4.28,4.28,0,0,1-3.64,1.43A3.91,3.91,0,0,1,150.9,88a4.18,4.18,0,0,1,6.51.55" style="fill:#455a64"></path><path d="M154.58,93.75a4.23,4.23,0,0,1-.67,3.86,3.92,3.92,0,0,1-3.51,1.19,4.2,4.2,0,0,1,3.86-5.28" style="fill:#455a64"></path><path d="M147.47,95.15a4.22,4.22,0,0,1-3.77,1,4,4,0,0,1-2.58-2.67,4.46,4.46,0,0,1,3.52-.91,4.38,4.38,0,0,1,2.9,2.15" style="fill:#455a64"></path><path d="M162.38,84.69a4.47,4.47,0,0,0,.36-4,4,4,0,0,0-3.16-2,4.44,4.44,0,0,0-.15,3.63,4.38,4.38,0,0,0,2.72,2.38" style="fill:#455a64"></path><path d="M188.18,70.72l-.06-.09-.19-.23c-.17-.21-.44-.5-.8-.86a10.49,10.49,0,0,0-3.62-2.34,7.65,7.65,0,0,0-2.95-.51,7,7,0,0,0-3.29,1,5.57,5.57,0,0,0-2.44,2.88,18,18,0,0,0-.56,4,7,7,0,0,1-.46,2,5.63,5.63,0,0,1-1.12,1.6c-.44.47-.92.91-1.33,1.4a6.78,6.78,0,0,0-1,1.58,8.44,8.44,0,0,0-.7,3.36,10.93,10.93,0,0,0,.37,3,22.2,22.2,0,0,0,1.52,4l.51,1.06a2.14,2.14,0,0,0,.2.36,2.44,2.44,0,0,0-.15-.38l-.48-1.08a25,25,0,0,1-1.44-4,11.59,11.59,0,0,1-.34-2.92,8.51,8.51,0,0,1,.71-3.28,6.31,6.31,0,0,1,1-1.52c.41-.48.88-.91,1.33-1.39A5.76,5.76,0,0,0,174,76.63a7.09,7.09,0,0,0,.49-2,18,18,0,0,1,.54-4,5.29,5.29,0,0,1,2.33-2.77,6.77,6.77,0,0,1,3.19-1,7.51,7.51,0,0,1,2.88.46,10.75,10.75,0,0,1,3.61,2.26c.38.34.65.62.84.82A2.44,2.44,0,0,0,188.18,70.72Z" style="fill:#263238"></path><path d="M172.15,78.58c.3-.4.51-.2,1-.2a3,3,0,0,1,1.41.41,5.52,5.52,0,0,1,2.81,5.38,4.31,4.31,0,0,1-5.07-5.66" style="fill:#455a64"></path><path d="M185.55,69.23c.09-.49.37-.4.82-.62a3.09,3.09,0,0,1,1.45-.24A5.55,5.55,0,0,1,192.68,72a4.31,4.31,0,0,1-7-2.92" style="fill:#455a64"></path><path d="M170.59,88.18a5,5,0,0,1,7.78-1,6.21,6.21,0,0,1-3.71,2.31,6.32,6.32,0,0,1-4.33-.89" style="fill:#455a64"></path><path d="M170.55,81.23a5,5,0,0,1-6.11-5,4.54,4.54,0,0,1,6.27,4.92" style="fill:#455a64"></path><path d="M174.24,72.37a5.05,5.05,0,0,1-7.43-2.68,4.53,4.53,0,0,1,7.55,2.56" style="fill:#455a64"></path><path d="M175.49,69.47a5.06,5.06,0,0,1,7.43,2.69,4.53,4.53,0,0,1-7.55-2.56" style="fill:#455a64"></path><path d="M177.29,67.7a5,5,0,0,1-4-6.81,4.53,4.53,0,0,1,4.16,6.79" style="fill:#455a64"></path><path d="M182.61,67a5.05,5.05,0,0,1,2.83-7.37,4.53,4.53,0,0,1-2.71,7.5" style="fill:#455a64"></path><rect x="160.54" y="89.07" width="23.06" height="4.09" style="fill:#90CAF9"></rect><polygon points="162.26 92.34 165.36 105.03 179.54 105.03 181.88 92.34 162.26 92.34" style="fill:#90CAF9"></polygon><path d="M183.59,93.16s-5.2.08-11.62.08-11.62,0-11.62-.08,5.21-.08,11.62-.08S183.59,93.11,183.59,93.16Z" style="fill:#263238"></path><polygon points="89.8 104.33 89.7 95.2 94.67 95.2 94.84 104.33 89.8 104.33" style="fill:#f5f5f5"></polygon><path d="M94.38,96.82a17.65,17.65,0,0,1-2.31.08,17.52,17.52,0,0,1-2.31-.08,17.52,17.52,0,0,1,2.31-.08A17.65,17.65,0,0,1,94.38,96.82Z" style="fill:#e0e0e0"></path><path d="M94.38,98.23a17.65,17.65,0,0,1-2.31.08,17.52,17.52,0,0,1-2.31-.08,17.52,17.52,0,0,1,2.31-.08A17.65,17.65,0,0,1,94.38,98.23Z" style="fill:#e0e0e0"></path><path d="M94.38,99.64a17.65,17.65,0,0,1-2.31.08,17.52,17.52,0,0,1-2.31-.08,17.52,17.52,0,0,1,2.31-.08A17.65,17.65,0,0,1,94.38,99.64Z" style="fill:#e0e0e0"></path><path d="M94.38,101.05a17.65,17.65,0,0,1-2.31.08,17.52,17.52,0,0,1-2.31-.08,17.52,17.52,0,0,1,2.31-.08A17.65,17.65,0,0,1,94.38,101.05Z" style="fill:#e0e0e0"></path><path d="M94.38,102.46a17.65,17.65,0,0,1-2.31.08,17.52,17.52,0,0,1-2.31-.08,15.67,15.67,0,0,1,2.31-.08A15.78,15.78,0,0,1,94.38,102.46Z" style="fill:#e0e0e0"></path><path d="M89.27,94.89h55.08a26,26,0,0,1,0,9.87H89.5v-.67h3.36a1.58,1.58,0,0,0,1.58-1.58V97.05a1.58,1.58,0,0,0-1.58-1.58H89.27Z" style="fill:#90CAF9"></path><path d="M142.45,105s-.08-2.27-.08-5.06,0-5.06.08-5.06.07,2.26.07,5.06S142.49,105,142.45,105Z" style="fill:#263238"></path><path d="M97.38,105s-.08-2.27-.08-5.06,0-5.06.08-5.06.07,2.26.07,5.06S97.42,105,97.38,105Z" style="fill:#263238"></path><path d="M143.41,105s-.08-2.27-.08-5.06,0-5.06.08-5.06.08,2.26.08,5.06S143.45,105,143.41,105Z" style="fill:#263238"></path><path d="M96.47,105s-.08-2.27-.08-5.06,0-5.06.08-5.06.08,2.26.08,5.06S96.52,105,96.47,105Z" style="fill:#263238"></path><path d="M135.52,101H106.93a1.34,1.34,0,0,1-1.33-1.33h0a1.33,1.33,0,0,1,1.33-1.33h28.59a1.32,1.32,0,0,1,1.33,1.33h0A1.33,1.33,0,0,1,135.52,101Z" style="fill:#fff"></path><path d="M99.14,86.84v7.63h7.15V86.84Z" style="fill:#ebebeb"></path><path d="M138.43,86.19a12.87,12.87,0,0,1,0,8.83H98.75v-.55h2.53a3.82,3.82,0,0,0,3.81-3.81h0a3.82,3.82,0,0,0-3.81-3.82H98.61V86Z" style="fill:#455a64"></path><path d="M103.36,87.43s7.94.07,17.74.07,17.75,0,17.75-.07-7.95-.08-17.75-.08S103.36,87.38,103.36,87.43Z" style="fill:#fff"></path><path d="M103,94.05s8,.08,17.84.08,17.84,0,17.84-.08-8-.08-17.84-.08S103,94,103,94.05Z" style="fill:#fff"></path><path d="M99.14,90.76a29,29,0,0,0,3,.08,29.13,29.13,0,0,0,3-.08,29.13,29.13,0,0,0-3-.08A29,29,0,0,0,99.14,90.76Z" style="fill:#e0e0e0"></path><path d="M99.14,92.48a24.11,24.11,0,0,0,2.71.08,24.22,24.22,0,0,0,2.72-.08,24.22,24.22,0,0,0-2.72-.08A24.11,24.11,0,0,0,99.14,92.48Z" style="fill:#e0e0e0"></path><path d="M99.1,94.05a24.54,24.54,0,0,0,4,0,24.54,24.54,0,0,0-4,0Z" style="fill:#e0e0e0"></path><path d="M99.08,89.22s1.29.07,2.87.07,2.86,0,2.86-.07a24,24,0,0,0-2.86-.08A24.29,24.29,0,0,0,99.08,89.22Z" style="fill:#e0e0e0"></path><path d="M99.14,87.67a16.1,16.1,0,0,0,2.21.08,16.1,16.1,0,0,0,2.21-.08,16.1,16.1,0,0,0-2.21-.08A16.1,16.1,0,0,0,99.14,87.67Z" style="fill:#e0e0e0"></path><path d="M95.17,78v7.63h14.76V78Z" style="fill:#ebebeb"></path><path d="M142.83,81.86v.2a4.38,4.38,0,0,1-4.4,4.1H94.48v-.55h10.43a3.82,3.82,0,0,0,3.82-3.82h0A3.82,3.82,0,0,0,104.91,78H94.48v-.81l44,.15A4.38,4.38,0,0,1,142.83,81.86Z" style="fill:#90CAF9"></path><path d="M95.17,81.89s3,.08,6.77.08,6.78,0,6.78-.08-3-.07-6.78-.07S95.17,81.85,95.17,81.89Z" style="fill:#e0e0e0"></path><path d="M95.38,83.61s2.87.08,6.41.08,6.42,0,6.42-.08-2.87-.08-6.42-.08S95.38,83.57,95.38,83.61Z" style="fill:#e0e0e0"></path><path d="M95.17,85.18s2.58.08,5.76.08,5.77,0,5.77-.08-2.58-.07-5.77-.07S95.17,85.14,95.17,85.18Z" style="fill:#e0e0e0"></path><path d="M95.17,80.35s3,.08,6.63.08,6.64,0,6.64-.08-3-.08-6.64-.08S95.17,80.31,95.17,80.35Z" style="fill:#e0e0e0"></path><path d="M95.38,78.8s2.65.08,5.91.08,5.91,0,5.91-.08-2.65-.07-5.91-.07S95.38,78.76,95.38,78.8Z" style="fill:#e0e0e0"></path><path d="M109,91.22h23.63a.69.69,0,0,0,.7-.69h0a.69.69,0,0,0-.7-.69H109a.69.69,0,0,0-.69.69h0A.69.69,0,0,0,109,91.22Z" style="fill:#fff"></path><path d="M114,82.51h23.64a.69.69,0,0,0,.69-.69h0a.69.69,0,0,0-.69-.7H114a.69.69,0,0,0-.69.7h0A.69.69,0,0,0,114,82.51Z" style="fill:#fff"></path></g><g id="freepik--Glasses--inject-43"><g style="opacity:0.7000000000000001"><path d="M307.13,406.49l1.55,27.75a2.67,2.67,0,0,0,2.64,2.51l9.34.06a2.66,2.66,0,0,0,2.67-2.45l2.23-27.79Z" style="fill:#e0e0e0"></path></g><path d="M325.15,407.31a8.84,8.84,0,0,1-2.54,1,20.68,20.68,0,0,1-13-.7,8.74,8.74,0,0,1-2.42-1.26c0-.08,1,.38,2.55.92a24.48,24.48,0,0,0,6.34,1.22,24.11,24.11,0,0,0,6.44-.54C324.15,407.58,325.12,407.22,325.15,407.31Z" style="fill:#263238"></path><path d="M321.74,434.36a46.23,46.23,0,0,0-5.45-.33,45.18,45.18,0,0,0-5.4.81,11.44,11.44,0,0,1,5.38-1.34A11.31,11.31,0,0,1,321.74,434.36Z" style="fill:#263238"></path><g style="opacity:0.7000000000000001"><path d="M248.41,450l27.8.06a2.65,2.65,0,0,0,2.66-2.49l.6-9.32a2.65,2.65,0,0,0-2.28-2.8l-27.61-3.84Z" style="fill:#e0e0e0"></path></g><path d="M250.28,432a8.67,8.67,0,0,1,.85,2.6,20.75,20.75,0,0,1-1.46,12.93,8.65,8.65,0,0,1-1.4,2.35c-.08,0,.44-.95,1.06-2.49a24.28,24.28,0,0,0,1.6-6.27,24.66,24.66,0,0,0-.16-6.46C250.5,433,250.2,432.05,250.28,432Z" style="fill:#263238"></path><path d="M277.09,437a26,26,0,0,0-.15,10.87,14,14,0,0,1,.15-10.87Z" style="fill:#263238"></path></g><g id="freepik--Cups--inject-43"><path d="M290.26,417.36l-5.92-.82A2.6,2.6,0,0,1,282.1,414V398.14a7.3,7.3,0,0,1,3.52-6.23c4.33-2.63,7.37-8.86,7.37-16.15a24.53,24.53,0,0,0-.85-6.42H270.08a24.53,24.53,0,0,0-.85,6.42c0,7.29,3,13.52,7.37,16.15a7.3,7.3,0,0,1,3.52,6.23V414a2.6,2.6,0,0,1-2.24,2.57l-5.92.82a.47.47,0,0,0-.39.48.46.46,0,0,0,.45.42H290.2a.45.45,0,0,0,.45-.42A.46.46,0,0,0,290.26,417.36Z" style="fill:#f5f5f5"></path><path d="M290.26,417.36a.43.43,0,0,1,.35.21.47.47,0,0,1,0,.51.51.51,0,0,1-.28.21,1.62,1.62,0,0,1-.38,0l-4.59.05-7.26.05-4.54,0H272a.58.58,0,0,1-.4-.13.64.64,0,0,1,.18-1.08,2,2,0,0,1,.35-.06l.64-.09,1.31-.19,2.71-.39c.45-.07,1-.11,1.37-.22a2.42,2.42,0,0,0,1.11-.7,2.36,2.36,0,0,0,.58-1.21,14,14,0,0,0,0-1.47c0-1,0-2,0-3.09q0-3.15,0-6.5v-3.4a14.92,14.92,0,0,0-.21-3.42,7.11,7.11,0,0,0-2.93-4.19,14.63,14.63,0,0,1-1.53-1.07,15.8,15.8,0,0,1-4.43-6.18,24.62,24.62,0,0,1-1-15.76l.05-.2h22.45l.05.19a25,25,0,0,1,.21,12.11,17.91,17.91,0,0,1-5.4,9.63c-.66.59-1.46,1-2.11,1.51a7.18,7.18,0,0,0-1.65,1.79,7.46,7.46,0,0,0-1.14,4.44c0,3.07,0,5.91,0,8.48s0,4.88,0,6.91a2.51,2.51,0,0,0,1.46,2.1,4.41,4.41,0,0,0,1.17.27l1.11.16,3.19.49.82.13.28.06a.86.86,0,0,1-.28,0l-.83-.1-3.2-.4-1.11-.15a4.45,4.45,0,0,1-1.23-.26,2.7,2.7,0,0,1-1.62-2.27c0-2,0-4.35-.05-6.93s0-5.41,0-8.48a7.82,7.82,0,0,1,1.18-4.66,7.61,7.61,0,0,1,1.73-1.9c.72-.53,1.44-.93,2.09-1.5a17.55,17.55,0,0,0,5.22-9.42,24.52,24.52,0,0,0-.23-11.87l.24.18H270.08l.26-.19a24.15,24.15,0,0,0,.91,15.43,15.47,15.47,0,0,0,4.29,6,16.31,16.31,0,0,0,1.48,1.05,7.26,7.26,0,0,1,1.42,1.23,7.51,7.51,0,0,1,1.7,3.24,7.39,7.39,0,0,1,.22,1.8v5.14q0,3.34,0,6.5c0,1.05,0,2.08,0,3.09a13.42,13.42,0,0,1-.05,1.54,2.74,2.74,0,0,1-.68,1.41,2.79,2.79,0,0,1-1.3.81,13.49,13.49,0,0,1-1.43.22l-2.71.37-1.31.18-.64.09c-.25,0-.36,0-.43.17a.28.28,0,0,0,.25.41h1.53l4.54,0,7.26,0,4.59,0c.27,0,.49,0,.59-.17a.39.39,0,0,0,0-.44A.52.52,0,0,0,290.26,417.36Z" style="fill:#263238"></path><path d="M85.42,459.6l-5.92-.83a2.6,2.6,0,0,1-2.24-2.57V440.37a7.3,7.3,0,0,1,3.52-6.23c4.33-2.62,7.37-8.86,7.37-16.14a24.53,24.53,0,0,0-.85-6.42h-22a24.53,24.53,0,0,0-.86,6.42c0,7.28,3,13.52,7.38,16.14a7.31,7.31,0,0,1,3.51,6.23V456.2A2.59,2.59,0,0,1,73,458.77l-5.92.83a.44.44,0,0,0-.38.48.45.45,0,0,0,.45.42H85.36a.46.46,0,0,0,.45-.42A.44.44,0,0,0,85.42,459.6Z" style="fill:#f5f5f5"></path><path d="M85.42,459.6s.18,0,.35.2a.47.47,0,0,1,0,.51.44.44,0,0,1-.27.21,1.67,1.67,0,0,1-.39,0l-4.58.05-7.27,0-4.54,0H67.19a.65.65,0,0,1-.4-.14.63.63,0,0,1-.15-.79.61.61,0,0,1,.33-.28,2.14,2.14,0,0,1,.35-.07l.64-.09,1.31-.19,2.71-.38c.45-.08,1-.11,1.37-.22a2.36,2.36,0,0,0,1.11-.71,2.26,2.26,0,0,0,.58-1.2,14.13,14.13,0,0,0,0-1.47V452c0-2.1,0-4.27,0-6.51v-3.4a15,15,0,0,0-.21-3.42,7.06,7.06,0,0,0-1.6-3,7.33,7.33,0,0,0-1.33-1.15,18.29,18.29,0,0,1-1.52-1.07A15.79,15.79,0,0,1,66,427.28a24.66,24.66,0,0,1-1-15.77l.06-.19H87.49l.05.18a25,25,0,0,1,.22,12.11,17.89,17.89,0,0,1-5.41,9.64c-.66.59-1.46,1-2.11,1.51a7.14,7.14,0,0,0-1.65,1.78A7.48,7.48,0,0,0,77.45,441c0,3.07,0,5.91,0,8.49s0,4.88,0,6.9a2.46,2.46,0,0,0,1.46,2.1,4,4,0,0,0,1.17.27l1.1.16,3.19.49.83.14a1,1,0,0,1,.27.06l-.28,0-.83-.09-3.2-.41L80,458.94a4.14,4.14,0,0,1-1.23-.27,2.7,2.7,0,0,1-1.62-2.27c0-2,0-4.35,0-6.92s0-5.42,0-8.49a7.83,7.83,0,0,1,1.17-4.66A7.57,7.57,0,0,1,80,434.44c.72-.54,1.44-.93,2.09-1.51a17.49,17.49,0,0,0,5.23-9.41,24.56,24.56,0,0,0-.24-11.88l.24.19h-22l.25-.19a24.16,24.16,0,0,0,.92,15.43,13.78,13.78,0,0,0,5.77,7,7.51,7.51,0,0,1,3.11,4.48,7.33,7.33,0,0,1,.22,1.8v1.73c0,1.15,0,2.29,0,3.4,0,2.24,0,4.41,0,6.51,0,1,0,2.07,0,3.09,0,.51,0,1,0,1.53a2.84,2.84,0,0,1-.69,1.41,2.71,2.71,0,0,1-1.3.81c-.52.13-.95.15-1.43.23l-2.71.37-1.31.18-.64.08c-.25,0-.36,0-.43.17a.29.29,0,0,0,.07.35.36.36,0,0,0,.18.07h1.53l4.54,0,7.27,0,4.58,0c.27,0,.49,0,.59-.17a.42.42,0,0,0,0-.44A.51.51,0,0,0,85.42,459.6Z" style="fill:#263238"></path></g><g id="freepik--Doodles--inject-43"><polygon points="347.5 90.95 340.43 102.06 336.36 97.59 329.31 113.15 336.12 103.29 340.44 108.08 350.19 94.04 347.5 90.95" style="fill:#90CAF9"></polygon><polygon points="362.06 129.74 351.87 131.49 352.32 126.76 339.55 130.87 348.88 129.63 348.37 134.67 361.68 132.94 362.06 129.74" style="fill:#90CAF9"></polygon><path d="M346.35,153.19c-7,0-24.34-7.32-40.1-15.75-19.18-10.25-38.34-23.42-36.09-27.64s23.86,4.4,43,14.65,38.35,23.42,36.09,27.64h0C348.88,152.84,347.86,153.19,346.35,153.19ZM273,109.62c-1.06,0-1.73.21-2,.65-1.42,2.66,12.89,14.11,35.68,26.29S347,154.27,348.4,151.62h0c1.42-2.66-12.88-14.11-35.68-26.29C293.69,115.15,278.37,109.62,273,109.62Z" style="fill:#e0e0e0"></path><path d="M272.31,148.29q-4,0-4.59-1.6c-.76-2,2.83-5.31,10.68-9.72a245.25,245.25,0,0,1,58.88-22.07c8.82-1.83,13.68-1.73,14.44.3s-2.83,5.31-10.68,9.72a216.77,216.77,0,0,1-28.73,12.93A217.52,217.52,0,0,1,282.16,147,51.52,51.52,0,0,1,272.31,148.29Zm74.94-33.7a50.72,50.72,0,0,0-9.76,1.29,245,245,0,0,0-58.6,22c-8.17,4.6-10.65,7.4-10.24,8.5s4.12,1.58,13.3-.33a215.13,215.13,0,0,0,30-9.1,216,216,0,0,0,28.59-12.86c8.17-4.6,10.65-7.4,10.24-8.5h0C350.58,115,349.49,114.59,347.25,114.59Z" style="fill:#e0e0e0"></path><polygon points="249.6 120.7 261.44 125.01 261.93 119.24 276.36 126.94 265.43 123.43 264.95 129.59 249.36 124.62 249.6 120.7" style="fill:#e0e0e0"></polygon><polygon points="263.28 159.68 270.75 158.68 269.4 155.49 279.17 155.56 272.42 156.73 273.87 160.13 264.24 161.82 263.28 159.68" style="fill:#e0e0e0"></polygon><polygon points="302.87 89.95 304.6 99.31 308.54 97.42 309.05 109.76 307.16 101.3 302.96 103.35 300.23 91.29 302.87 89.95" style="fill:#e0e0e0"></polygon></g><g id="freepik--Character--inject-43"><polygon points="456.73 396.09 449.98 360.68 427.98 360.68 442.73 396.15 456.73 396.09" style="fill:#ae7461"></polygon><polygon points="51.37 395.78 64.03 350.17 86.02 350.17 65.37 395.84 51.37 395.78" style="fill:#ae7461"></polygon><path d="M51,249.81s22.51-8.36,45.62-4.37c4.35.75,1.78,42,1.78,42l-17,12.06L51,249.81" style="fill:#455a64"></path><g style="opacity:0.30000000000000004"><path d="M51,249.81s22.51-8.36,45.62-4.37c4.35.75,1.78,42,1.78,42l-17,12.06L51,249.81"></path></g><path d="M75.8,344.18s0-33.39,0-34.05H258.5l1.92,34.12Z" style="fill:#455a64"></path><path d="M55.64,248.74H67.3a14.15,14.15,0,0,1,14.15,14.15v82.2a1.67,1.67,0,0,1-1.67,1.67H55.64a14.15,14.15,0,0,1-14.15-14.15V262.89A14.15,14.15,0,0,1,55.64,248.74Z" style="fill:#455a64"></path><path d="M263.27,287.46c.14-.74-1.31-4.41-14-4-9.76.29-145.47-.33-152.13,5.24-17,14.16-20,11.65-21,22.36l187.2-.91Z" style="fill:#455a64"></path><rect x="43.97" y="343.79" width="430.8" height="16.89" rx="6.46" style="fill:#455a64"></rect><path d="M418.6,287.46l2.3-54c.2-4.89-4-9-9.35-8.93l-153,.81v62.09Z" style="fill:#455a64"></path><path d="M441.22,344.18s0-33.39,0-34.05H258.52l.85,33.74Z" style="fill:#455a64"></path><path d="M262.35,287c-.13-.74,1.06-4,13.12-3.57,9.24.29,136.69-.9,143.59,4s20.11,9.89,22.18,23.79l-179.06-1.12Z" style="fill:#455a64"></path><path d="M467.26,250a97.11,97.11,0,0,0-46.62-4.58c-4.78.75-2,42-2,42L438.6,302l28.66-52" style="fill:#455a64"></path><g style="opacity:0.30000000000000004"><path d="M467.26,250a97.11,97.11,0,0,0-46.62-4.58c-4.78.75-2,42-2,42L438.6,302l28.66-52"></path></g><path d="M449.72,248.74h25.81a0,0,0,0,1,0,0v83.87a14.15,14.15,0,0,1-14.15,14.15H449.72a14.15,14.15,0,0,1-14.15-14.15V262.89a14.15,14.15,0,0,1,14.15-14.15Z" transform="translate(911.1 595.5) rotate(180)" style="fill:#455a64"></path><path d="M467.4,343.87c0,.15-92.92.36-207.52.46s-207.54.07-207.54-.08,92.9-.36,207.54-.47S467.4,343.72,467.4,343.87Z" style="fill:#263238"></path><path d="M263.57,225.34a1.3,1.3,0,0,1,0,.31q0,.34,0,.9c0,.82,0,2,.06,3.45,0,3,.05,7.36.09,12.68,0,10.75.06,25.53.09,41.86s-.06,31.11-.09,41.86c0,5.32-.07,9.65-.09,12.68q0,2.21-.06,3.45,0,.56,0,.9a.15.15,0,1,1-.06,0q0-.35,0-.9c0-.83,0-2-.05-3.45,0-3-.06-7.36-.09-12.68,0-10.75-.06-25.53-.09-41.86s.06-31.11.09-41.86c0-5.32.07-9.65.09-12.68,0-1.47,0-2.63.05-3.45q0-.56,0-.9A1.3,1.3,0,0,1,263.57,225.34Z" style="fill:#263238"></path><path d="M97.09,288.68l-1-55.19c-.21-4.89,4-9,9.34-8.93l153,.81,0,62.09Z" style="fill:#455a64"></path><path d="M419.54,288.41l1.85,1.25,5.44,3.73,8.9,6.14a15.47,15.47,0,0,1,4.68,5,8.1,8.1,0,0,1,.51,7.37l0,.06h-.08l-342.54-.8L76.05,311h-.26l0-.21a10.83,10.83,0,0,1,2.32-7.59,18.71,18.71,0,0,1,2.77-3c1-.9,2.13-1.68,3.22-2.49l12.84-9.55.07-.06h.11c91.33-1,172-1.05,229.73-.68,28.89.17,52.07.4,68,.59l18.34.24,4.74.08,1.61,0-92.72-.59c-57.78-.28-138.39-.19-229.73.86l.17-.05-12.82,9.53c-1.08.81-2.19,1.6-3.19,2.48a17.91,17.91,0,0,0-2.68,2.9,12.8,12.8,0,0,0-1.8,3.43,8.33,8.33,0,0,0-.43,3.75l-.29-.22,22.22.06,342.54,1.12-.11.06a7.86,7.86,0,0,0-.49-7.16,15.28,15.28,0,0,0-4.59-4.91l-8.85-6.17-5.41-3.79C420.15,288.86,419.54,288.41,419.54,288.41Z" style="fill:#263238"></path><path d="M76,310.38c.16,0,.29,7.51.29,16.78s-.13,16.78-.29,16.78-.3-7.51-.3-16.78S75.81,310.38,76,310.38Z" style="fill:#263238"></path><path d="M440.82,311.25c.16,0,.29,7.29.29,16.27s-.13,16.27-.29,16.27-.3-7.28-.3-16.27S440.66,311.25,440.82,311.25Z" style="fill:#263238"></path><path d="M235.48,243.89c-.21-5.65-2.74-10.66-3.07-16a4,4,0,0,0-4-3.82l-77.24.51c8.12,8.82,12.84,20.55,11.27,33-.8,6.32-2.52,13.95,4.42,17.25a10.91,10.91,0,0,0,2.63.84,39.21,39.21,0,0,0,25.47-3.87c6-3.19,11.46-8.06,18.21-9.06,4.58-.67,9.47.51,13.76-1.21C233.36,258.92,235.74,250.86,235.48,243.89Z" style="fill:#e0e0e0"></path><path d="M210.86,241.11a9.44,9.44,0,0,1-1,1.1c-.66.69-1.65,1.65-2.9,2.82a112.6,112.6,0,0,1-21.56,15.63c-1.49.83-2.71,1.47-3.57,1.88a7.83,7.83,0,0,1-1.36.6,7.68,7.68,0,0,1,1.26-.78c.83-.47,2-1.16,3.49-2,2.93-1.73,6.92-4.23,11.12-7.28s7.82-6.06,10.38-8.31c1.27-1.12,2.3-2,3-2.69A7.13,7.13,0,0,1,210.86,241.11Z" style="fill:#263238"></path><path d="M123.08,224.64V225a56.86,56.86,0,0,0,4.2,11.51c.68,1.38,1.72,2.93,3.26,2.93a4.41,4.41,0,0,0,2.89-1.69c4.3-4.38,9.14-8.83,13.44-13.2C138.44,224.36,129.84,224.23,123.08,224.64Z" style="fill:#e0e0e0"></path><path d="M120.71,299.13a2.51,2.51,0,0,1-3.42-.95L97.88,263.76a10.49,10.49,0,0,1-1.2-6.9L97,255a9.61,9.61,0,0,0-1.1-6.37l-7-12.42a.16.16,0,0,0-.21-.06.34.34,0,0,1-.46-.12l-.62-1.12a.29.29,0,0,1,.1-.39.19.19,0,0,0,.08-.27l-.27-.49a.21.21,0,0,0-.27-.08.29.29,0,0,1-.4-.1l-1-1.77a.48.48,0,0,1,.18-.66l6.4-3.61a.48.48,0,0,1,.66.19l1,1.76a.3.3,0,0,1-.12.4.19.19,0,0,0-.07.26l.28.5a.2.2,0,0,0,.27.07.28.28,0,0,1,.39.11l.63,1.11a.33.33,0,0,1-.13.45.17.17,0,0,0-.06.22l7,12.41a9.66,9.66,0,0,0,4.89,4.24l1.8.7a10.49,10.49,0,0,1,5.29,4.6l19.41,34.42a2.51,2.51,0,0,1-.95,3.42Z" style="fill:#ebebeb"></path><path d="M120.71,299.13l.39-.25,1.19-.7,4.59-2.64,3.32-1.9,1.9-1.09a5.77,5.77,0,0,0,1-.6,2.52,2.52,0,0,0,.65-.92,2.49,2.49,0,0,0-.3-2.29l-1.34-2.34-2.89-5.1-14.24-25.14a16.91,16.91,0,0,0-2.23-3.4,10.46,10.46,0,0,0-3.31-2.41,28.6,28.6,0,0,1-4-1.75,9.87,9.87,0,0,1-3.15-3.18l-4.45-7.86-2.27-4-.28-.5-.15-.26a.89.89,0,0,1-.09-.18.42.42,0,0,1,.06-.36.34.34,0,0,1,.13-.12l0,0,0,0a.13.13,0,0,0,0-.06l-.28-.51-.29-.51c-.06-.11-.06-.11-.07-.11s0,0-.06,0a.46.46,0,0,1-.59-.19l-.14-.25-.16-.28a.46.46,0,0,1,.2-.58s0,0,0,0h0l-.07-.12-.29-.52-.57-1a1,1,0,0,0-.11-.17.21.21,0,0,0-.12-.05.23.23,0,0,0-.14,0l-.24.14-1,.57-4,2.27-1,.56-.13.07-.05,0a.17.17,0,0,0-.06.12c0,.08,0,.16.13.35l.56,1,.28.5c.06.11,0,.08.06.09s0,0,.05,0a.45.45,0,0,1,.58.16l.15.26.14.24a.45.45,0,0,1-.09.57l-.09.07h0s0,0,0,.08l.27.49.28.49.07.11h.1a.39.39,0,0,1,.18,0,.42.42,0,0,1,.32.14c.1.16.11.19.16.28l.28.49,4.27,7.59L95.87,248A10.23,10.23,0,0,1,97.3,252a11.75,11.75,0,0,1-.24,4.07,11.58,11.58,0,0,0-.22,3.83,10,10,0,0,0,1.09,3.54l1.8,3.21c2.36,4.22,4.57,8.15,6.58,11.73l9.49,17c.56,1,1,1.9,1.49,2.68a2.43,2.43,0,0,0,1.64,1.32,2.5,2.5,0,0,0,1.34,0c.29-.09.43-.18.44-.17a1.55,1.55,0,0,1-.42.22,2.43,2.43,0,0,1-1.38.09,2.54,2.54,0,0,1-1.76-1.35l-1.52-2.65L106,278.51l-6.64-11.7c-.59-1.05-1.2-2.12-1.81-3.22a10.55,10.55,0,0,1-1.16-3.69,12,12,0,0,1,.22-4,11,11,0,0,0,.22-3.92,9.93,9.93,0,0,0-1.37-3.77c-.69-1.21-1.38-2.44-2.08-3.68L89.08,237l-.27-.48-.07-.13,0-.06,0,0,.08,0h0v0c.11.21,0,.07,0,.13l-.06,0a.59.59,0,0,1-.47,0A.75.75,0,0,1,88,236l-.27-.49-.28-.49a.61.61,0,0,1-.08-.45.46.46,0,0,1,.12-.23.28.28,0,0,1,.1-.09s.07,0,.06,0h0s-.12.07-.07,0l-.14-.24-.07-.12,0-.07,0,0c-.06,0,.07-.06,0,0h0c.08.12,0,0,0,.08l-.06,0-.13,0a.55.55,0,0,1-.25,0,.61.61,0,0,1-.31-.32l-.28-.49-.56-1-.15-.28a.78.78,0,0,1,0-.43.67.67,0,0,1,.2-.38,1.09,1.09,0,0,1,.17-.13l.12-.07,1-.56,4-2.27,1-.57.27-.15a.71.71,0,0,1,.43-.08.73.73,0,0,1,.4.18,1.12,1.12,0,0,1,.22.31l.58,1,.29.51.07.13a.55.55,0,0,1,.06.28.52.52,0,0,1-.26.45s-.09-.11-.06-.05h0c-.06,0,.08,0,.07,0l0,0,0,.06.07.13.14.26c-.13.07,0,0-.06,0h0c0-.15.34-.13.49-.06a.63.63,0,0,1,.29.33l.29.51.29.51a.57.57,0,0,1,0,.51.58.58,0,0,1-.15.21l-.1.07s-.12-.2-.07-.1h0l.08,0,0,0,0,.07.14.25.28.51,2.27,4q2.25,4,4.43,7.85a9.45,9.45,0,0,0,3,3,27.46,27.46,0,0,0,3.9,1.73,10.83,10.83,0,0,1,3.47,2.53,16.6,16.6,0,0,1,2.28,3.49l14.15,25.19,2.86,5.12c.46.81.89,1.6,1.32,2.36a2.77,2.77,0,0,1,.3,2.55,2.71,2.71,0,0,1-.74,1,6.12,6.12,0,0,1-1,.63l-1.92,1.06L127,295.71l-4.64,2.56-1.21.66Z" style="fill:#263238"></path><rect x="106.38" y="262.78" width="15.03" height="20.44" transform="translate(-119.42 91.16) rotate(-29.42)" style="fill:#90CAF9"></rect><path d="M94.05,245.28l-5.14-9.12a.16.16,0,0,0-.21-.06.34.34,0,0,1-.46-.12l-.62-1.12a.29.29,0,0,1,.1-.39.19.19,0,0,0,.08-.27l-.27-.49a.21.21,0,0,0-.27-.08.29.29,0,0,1-.4-.1l-1-1.77a.48.48,0,0,1,.18-.66l6.4-3.61a.48.48,0,0,1,.66.19l1,1.76a.3.3,0,0,1-.12.4.19.19,0,0,0-.07.26l.28.5a.2.2,0,0,0,.27.07.28.28,0,0,1,.39.11l.63,1.11a.33.33,0,0,1-.13.45.17.17,0,0,0-.06.22l5.15,9.11Z" style="fill:#90CAF9"></path><path d="M116.06,295.76s-4-6.86-8.8-15.39-8.66-15.46-8.61-15.49,4,6.86,8.8,15.39S116.11,295.73,116.06,295.76Z" style="fill:#fff"></path><path d="M88.82,236.22l6.4-3.61" style="fill:#e0e0e0"></path><path d="M95.22,232.61a32.18,32.18,0,0,1-3.15,1.9,32.55,32.55,0,0,1-3.25,1.71,32.18,32.18,0,0,1,3.15-1.9A33.86,33.86,0,0,1,95.22,232.61Z" style="fill:#263238"></path><path d="M88.07,234.32,93.89,231" style="fill:#e0e0e0"></path><path d="M93.89,231A25.44,25.44,0,0,1,91,232.77a25.32,25.32,0,0,1-3,1.55,28.69,28.69,0,0,1,2.86-1.73A28.44,28.44,0,0,1,93.89,231Z" style="fill:#263238"></path><path d="M87.46,233.57l5.77-3.25" style="fill:#e0e0e0"></path><path d="M93.23,230.32A27.22,27.22,0,0,1,90.39,232a25.19,25.19,0,0,1-2.93,1.53,25.46,25.46,0,0,1,2.83-1.71A25.94,25.94,0,0,1,93.23,230.32Z" style="fill:#263238"></path><path d="M343.18,268.88a183.63,183.63,0,0,1-19.06,3.51c-.51.05.36,2.59.36,2.59-9.81,0-12.66-.13-18.06-.51-7.27-.51-26.24-1.72-27.67,11.73-1.82,17,10.4,18.59,10.4,18.59l78.59,7.31,4.64-19.74-21.47-2.18Z" style="fill:#263238"></path><path d="M379.74,311.43l20.95,1.73S406,335,409.81,335.73l4.81-40.5-32.53-4Z" style="fill:#263238"></path><path d="M400.43,300.43a1.65,1.65,0,0,1,2-.92,1.6,1.6,0,0,1,.93,2,1.75,1.75,0,0,1-2.15,1,1.67,1.67,0,0,1-.73-2.19" style="fill:#e0e0e0"></path><path d="M414.62,295.23l-3.29-.28L408,333.89s.57,1.89,1.86,1.84Z" style="fill:#e0e0e0"></path><path d="M400.41,313.79c.2,0,.41-1,1.16-1.86s1.64-1.32,1.59-1.51-1.24,0-2.13,1.07S400.22,313.81,400.41,313.79Z" style="fill:#fff"></path><path d="M401.66,318.25c.19.06.63-.75,1.54-1.33s1.83-.66,1.84-.85-1.09-.46-2.21.27S401.47,318.22,401.66,318.25Z" style="fill:#fff"></path><path d="M406.46,321.26c.06-.17-.89-.57-2-.19s-1.69,1.26-1.53,1.36.8-.4,1.74-.7S406.42,321.46,406.46,321.26Z" style="fill:#fff"></path><path d="M395.68,312.87c.19-.07,0-1,.23-2.11s.67-1.94.51-2.07-1,.63-1.19,1.94S395.51,312.94,395.68,312.87Z" style="fill:#fff"></path><path d="M379,256.56s9.82,7.37,12.88,18.89c2.12,8,1.33,22.26,1.33,22.26s3.77,20.37,4,30.55-2,58.09-2,58.09h-20.3s-4.89-32.25-6.78-47.84c-.4-3.32-.27-14.15-.7-17.6A101.59,101.59,0,0,0,363.75,303L360,295.94l-10.19-2.21-8-14,.67-10.38Z" style="fill:#263238"></path><path d="M356.94,291.91a2.21,2.21,0,0,1-.58-.11l-1.63-.43-6-1.61c-5.05-1.33-12.07-3-19.83-4.89s-14.76-3.66-19.79-5.13c-2.51-.74-4.53-1.36-5.92-1.83l-1.59-.54a4,4,0,0,1-.55-.22,2,2,0,0,1,.58.12l1.62.45c1.41.41,3.44,1,6,1.66,5,1.38,12,3.12,19.81,5s14.77,3.62,19.81,5.05c2.51.71,4.54,1.31,5.94,1.76l1.6.53A3.48,3.48,0,0,1,356.94,291.91Z" style="fill:#455a64"></path><path d="M343.18,287.7c-.08,0-.44-.88-1.4-2.09a14.45,14.45,0,0,0-4.67-3.75,34.08,34.08,0,0,0-5.67-2.19,12.28,12.28,0,0,1-2.41-.82,12.12,12.12,0,0,1,2.51.47,26.2,26.2,0,0,1,5.81,2.08,13.36,13.36,0,0,1,4.73,4A8.16,8.16,0,0,1,343,287C343.16,287.45,343.21,287.69,343.18,287.7Z" style="fill:#455a64"></path><path d="M356.64,275.45c.11.12-2,1.9-3.93,4.67s-2.88,5.37-3,5.32a14.32,14.32,0,0,1,2.6-5.61A14.5,14.5,0,0,1,356.64,275.45Z" style="fill:#455a64"></path><path d="M366.34,314.71a5,5,0,0,1-.32-1c-.17-.63-.4-1.54-.68-2.66-.55-2.25-1.27-5.37-2-8.82-.41-1.86-.8-3.63-1.14-5.22l.06.12c-1.59-1.52-2.93-2.81-3.86-3.74a9.74,9.74,0,0,1-1.42-1.52,13.24,13.24,0,0,1,1.61,1.31c1,.87,2.37,2.12,4,3.6l.05.05,0,.07c.36,1.6.76,3.36,1.19,5.22.77,3.45,1.44,6.58,1.89,8.85.23,1.13.41,2.05.52,2.69A3.6,3.6,0,0,1,366.34,314.71Z" style="fill:#455a64"></path><path d="M373.86,365.83l3.59,26.06-3.09,21.42a2.68,2.68,0,0,0,2.46,3.07h0a2.64,2.64,0,0,0,2.27-1c3.55-4.28,16.53-20.09,16.16-22-.43-2.19-2-27.73-2-27.73Z" style="fill:#263238"></path><path d="M376.82,416.38,395,391.67l.13,1.11a4.09,4.09,0,0,1-.65,2.72c-1.44,2.14-5.53,8-15.35,19.92a2.67,2.67,0,0,1-2.35,1Z" style="fill:#e0e0e0"></path><g style="opacity:0.6000000000000001"><path d="M389.51,386.56a1.64,1.64,0,0,0-.2,2.17,1.49,1.49,0,0,0,2.59-.52,1.6,1.6,0,0,0-1.86-1.95,1.12,1.12,0,0,0-.64.41" style="fill:#fff"></path></g><path d="M382,402.78a8.21,8.21,0,0,0-2.83-1.22,8,8,0,0,0-3.05.39c-.05-.06.21-.35.76-.63a4.29,4.29,0,0,1,4.56.65C381.86,402.38,382,402.74,382,402.78Z" style="fill:#fff"></path><path d="M380.45,407a21.86,21.86,0,0,0-2.45-.86,23.79,23.79,0,0,0-2.58,0,3,3,0,0,1,2.69-.53C379.7,405.85,380.58,406.91,380.45,407Z" style="fill:#fff"></path><path d="M384.52,398.27a27.22,27.22,0,0,0-3.91-.88,27.9,27.9,0,0,0-4,.28,7.38,7.38,0,0,1,7.9.6Z" style="fill:#fff"></path><path d="M384.32,393.24c-.05.17-1.56-.27-3.45-.12s-3.32.77-3.4.61a6.7,6.7,0,0,1,6.85-.49Z" style="fill:#fff"></path><path d="M396.45,320a8.81,8.81,0,0,1-.31-1.39c-.18-1-.41-2.27-.68-3.79-.55-3.22-1.32-7.66-1.88-12.61a126.81,126.81,0,0,1-.8-12.72c0-1.63,0-2.95,0-3.86a7.07,7.07,0,0,1,.1-1.42,8.17,8.17,0,0,1,.1,1.42c0,1,.08,2.3.13,3.85.13,3.25.39,7.74,1,12.68s1.26,9.37,1.72,12.6c.23,1.61.41,2.92.52,3.82A7.46,7.46,0,0,1,396.45,320Z" style="fill:#455a64"></path><path d="M375.26,263.44a25.33,25.33,0,0,0-4.56,2.68,24.65,24.65,0,0,0-7.42,10.19,50,50,0,0,0-3,12.4c-.19,1.56-.35,2.86-.48,3.87a6.63,6.63,0,0,1-.23,1.41,8.63,8.63,0,0,1,0-1.43c.05-.92.15-2.25.32-3.89a45.37,45.37,0,0,1,2.92-12.56,23.87,23.87,0,0,1,7.68-10.28,15.83,15.83,0,0,1,3.41-1.94,9.4,9.4,0,0,1,1-.36A1.08,1.08,0,0,1,375.26,263.44Z" style="fill:#455a64"></path><path d="M332.12,185.59l-6.85-39.15c-1.39-9.8-8.24-17.16-18-15.5l-.89.21A17.68,17.68,0,0,0,292.86,151c1.25,8.48,2.73,17.84,3.82,22.29,2.25,9.23,11.83,8.53,11.83,8.53s1.12,5.66,1.63,8.4l-1,6.81,7.32-3.31Z" style="fill:#ffbf9d"></path><path d="M308.51,181.78a22.89,22.89,0,0,0,11.22-6.34s-1.29,7.62-10.71,8.92Z" style="fill:#ff9a6c"></path><path d="M297.53,158.89a1.37,1.37,0,0,0,1.59,1,1.3,1.3,0,0,0,1.08-1.51,1.35,1.35,0,0,0-1.58-1A1.31,1.31,0,0,0,297.53,158.89Z" style="fill:#263238"></path><path d="M295.76,154.59c.21.13,1-.84,2.46-1.16s2.63.14,2.74-.07-.18-.36-.71-.59a3.74,3.74,0,0,0-2.24-.16,3.58,3.58,0,0,0-1.91,1.14C295.74,154.18,295.67,154.53,295.76,154.59Z" style="fill:#263238"></path><path d="M310,156.55a1.34,1.34,0,0,0,1.58,1,1.29,1.29,0,0,0,1.08-1.5,1.34,1.34,0,0,0-1.58-1A1.29,1.29,0,0,0,310,156.55Z" style="fill:#263238"></path><path d="M309.77,151.7c.21.14,1-.83,2.46-1.16s2.63.15,2.74-.06-.18-.37-.71-.59a3.73,3.73,0,0,0-2.24-.17,3.58,3.58,0,0,0-1.91,1.14C309.75,151.3,309.68,151.64,309.77,151.7Z" style="fill:#263238"></path><path d="M307.19,163.8a9.74,9.74,0,0,0-2.4.12c-.37,0-.73.05-.85-.18a1.92,1.92,0,0,1,0-1.13c.14-1,.29-2,.44-3,.58-4.27.92-7.76.74-7.78s-.78,3.43-1.36,7.71c-.14,1-.27,2-.39,3a2.18,2.18,0,0,0,.14,1.47.94.94,0,0,0,.72.4,2.86,2.86,0,0,0,.63-.06A9.64,9.64,0,0,0,307.19,163.8Z" style="fill:#263238"></path><path d="M313.21,146.55c-.27-.33-1.59.32-3.27.67s-3.15.37-3.25.77c0,.2.31.47,1,.66a5.66,5.66,0,0,0,2.61,0,5.6,5.6,0,0,0,2.35-1.12C313.13,147.1,313.32,146.71,313.21,146.55Z" style="fill:#263238"></path><path d="M294.73,150.42c.37.26,1.46-.32,2.85-.64s2.63-.33,2.83-.73c.08-.19-.17-.48-.76-.67a4.55,4.55,0,0,0-2.43,0,4.49,4.49,0,0,0-2.14,1.14C294.66,149.93,294.57,150.29,294.73,150.42Z" style="fill:#263238"></path><path d="M326.09,153.46c.15-.1,5.93-3.35,7.18,3s-5.39,6.32-5.44,6.14S326.09,153.46,326.09,153.46Z" style="fill:#ffbf9d"></path><path d="M329.3,159.83s.12,0,.33.1a1.12,1.12,0,0,0,.83-.15,2.79,2.79,0,0,0,.79-2.71,3.75,3.75,0,0,0-.63-1.53,1.31,1.31,0,0,0-1-.69.59.59,0,0,0-.6.44c0,.19,0,.31,0,.33s-.16-.08-.16-.35a.73.73,0,0,1,.17-.45.88.88,0,0,1,.58-.29,1.63,1.63,0,0,1,1.36.76,3.91,3.91,0,0,1,.73,1.7,2.91,2.91,0,0,1-1.07,3.07,1.21,1.21,0,0,1-1.05,0C329.34,160,329.28,159.84,329.3,159.83Z" style="fill:#ff9a6c"></path><path d="M278.4,145a1.55,1.55,0,0,1,.53-1,4.8,4.8,0,0,1,2.31-.87,13.65,13.65,0,0,0,5.53-2.62,6.67,6.67,0,0,1-1.95-.86,4.08,4.08,0,0,1-1.94-3.75.91.91,0,0,1,.37-.71c.39-.2.84.13,1.19.39a3.52,3.52,0,0,0,3.51.73,5.73,5.73,0,0,0,2.28-1.2l.06-.1c.26-.41.52-.8.78-1.18h0a21.44,21.44,0,0,1,5.6-6.19A22,22,0,0,1,308,124.39c3.41.2,6.85,2.25,8,5.48,1.51-1.9,4.25-2.43,6.64-2l.05,0c2.64.39,4.56,2.72,5.79,5.09.07.13.13.26.19.39a10,10,0,0,0,4,2.58c.26.09.57.21.65.47a.79.79,0,0,1-.29.74,4.85,4.85,0,0,1-1.83,1.23,12.72,12.72,0,0,0,1.16,1.57c.38.42.82.92.68,1.46a1.1,1.1,0,0,1-1,.69,3.22,3.22,0,0,1-1.25-.29l1.22,1.81a6,6,0,0,1-2.72.35c-.05,2.46.42,6.89.13,8.61-1.68.36-2.13.26-2.93.71-1,.59-.21,2.46-1.76,2.19-.79-.14-2.46-2.68-2.85-3.38A37.08,37.08,0,0,1,317.2,137a11.93,11.93,0,0,0-4.13-1.89l.13.08c-2.78-.39-5.9-.69-8.13,1-1.73,1.33-2.46,3.54-3.57,5.41a13.6,13.6,0,0,1-8.88,6.75c.19,2.88,1,7.5,1.39,10.15l-3.29-4.8v0c-.24-.27-.45-.55-.66-.83l-.07-.09h0a16.08,16.08,0,0,0-1-1.34l0,0a1.67,1.67,0,0,1-2.83-1.71,3.83,3.83,0,0,1,.64-1,2.66,2.66,0,0,1-2.35,1.14,2.09,2.09,0,0,1-1.84-1.73,1.77,1.77,0,0,1,.76-1.59,6,6,0,0,1-3.47-.07C279.11,146.34,278.34,145.85,278.4,145Z" style="fill:#263238"></path><path d="M313.28,131.53a7.26,7.26,0,0,1,1.11.67,6.84,6.84,0,0,1,2.05,2.8,12.79,12.79,0,0,1,.71,2.33c.17.85.29,1.79.41,2.77a25.77,25.77,0,0,0,.54,3.07,12.09,12.09,0,0,0,.53,1.57,3.51,3.51,0,0,0,1,1.43,1.43,1.43,0,0,0,1.41.18,2.16,2.16,0,0,0,1.05-.9,4.9,4.9,0,0,0,.42-2.55l-.19.06a8.2,8.2,0,0,0,1.52,1.73,2.82,2.82,0,0,0,2,.62,1.77,1.77,0,0,0,.93-.36,1.6,1.6,0,0,0,.53-.77,1.72,1.72,0,0,0,0-.87,1.18,1.18,0,0,0-.44-.66l-.09.11a6.25,6.25,0,0,0,2.31,1.1,6,6,0,0,0,.66.12H330a1.16,1.16,0,0,0-.23-.05c-.15,0-.37-.07-.66-.15a6.41,6.41,0,0,1-2.23-1.14l-.08.11a1.21,1.21,0,0,1,.33,1.37,1.48,1.48,0,0,1-.47.69,1.71,1.71,0,0,1-.84.31,2.66,2.66,0,0,1-1.87-.6,7.88,7.88,0,0,1-1.48-1.69l-.19-.28v.34a4.72,4.72,0,0,1-.4,2.43,1.91,1.91,0,0,1-.94.81,1.19,1.19,0,0,1-1.19-.15,3.12,3.12,0,0,1-.9-1.34,10.78,10.78,0,0,1-.53-1.54,24.63,24.63,0,0,1-.54-3c-.14-1-.26-1.92-.44-2.78a12,12,0,0,0-.75-2.35,6.66,6.66,0,0,0-2.14-2.81A3.73,3.73,0,0,0,313.28,131.53Z" style="fill:#455a64"></path><path d="M286.26,146.34l.09,0,.26.13a3.61,3.61,0,0,0,.45.17,5.35,5.35,0,0,0,.63.19,8.51,8.51,0,0,0,4.13-.08,10.77,10.77,0,0,0,5.21-3.2,18.82,18.82,0,0,0,3.72-6.53c.45-1.27.78-2.53,1.17-3.72a12.37,12.37,0,0,1,1.52-3.26,6.46,6.46,0,0,1,2.36-2.16,4.55,4.55,0,0,1,1.38-.45,5.56,5.56,0,0,1,1.35,0,5.62,5.62,0,0,1,3.5,1.94,6.89,6.89,0,0,1,.76,1.3l0-.09-.1-.28a5.41,5.41,0,0,0-.56-1,5.51,5.51,0,0,0-3.55-2,5.37,5.37,0,0,0-1.39,0,4.81,4.81,0,0,0-1.44.45,6.55,6.55,0,0,0-2.45,2.22,12.87,12.87,0,0,0-1.56,3.3c-.4,1.2-.72,2.46-1.17,3.71a18.66,18.66,0,0,1-3.66,6.47,10.77,10.77,0,0,1-5.1,3.19,8.54,8.54,0,0,1-4.07.14A12,12,0,0,1,286.26,146.34Z" style="fill:#455a64"></path><path d="M312.59,166c0,.15-1.43.29-3,1s-2.61,1.74-2.72,1.63a4.92,4.92,0,0,1,2.5-2.1A4.82,4.82,0,0,1,312.59,166Z" style="fill:#263238"></path><path d="M333.82,132.7c0,.05-.35.38-1.13.62a5,5,0,0,1-5.6-2c-.45-.67-.55-1.17-.5-1.19s.3.4.79,1a5.63,5.63,0,0,0,2.36,1.64,5.56,5.56,0,0,0,2.86.19A9.11,9.11,0,0,1,333.82,132.7Z" style="fill:#263238"></path><path d="M323.7,123.76a28,28,0,0,0-4.23,2.75,27.45,27.45,0,0,0-3.26,3.84,10.6,10.6,0,0,1,7.49-6.59Z" style="fill:#263238"></path><path d="M318.23,121.66c.14.07-.71,2-1.37,4.43s-.9,4.53-1.06,4.52a11.79,11.79,0,0,1,.55-4.65A11.92,11.92,0,0,1,318.23,121.66Z" style="fill:#263238"></path><path d="M281.11,139.42c0-.06.44.09,1.08.37a18,18,0,0,0,2.53.93,6.78,6.78,0,0,0,2.61.18c.67-.09,1.07-.26,1.11-.19s-.33.35-1,.55a5.51,5.51,0,0,1-2.82,0,9.75,9.75,0,0,1-2.56-1.11C281.42,139.75,281.07,139.48,281.11,139.42Z" style="fill:#263238"></path><path d="M289.08,130.66a1.85,1.85,0,0,0-.16-.7,1.4,1.4,0,0,0-1.62-.67,2.4,2.4,0,0,0-1.74,2,4,4,0,0,0,1.18,3.21,2.64,2.64,0,0,0,1.53.84,2.74,2.74,0,0,0,1.6-.39,9.66,9.66,0,0,0,2.35-1.87,22.58,22.58,0,0,0,1.69-2.25s0,.28-.26.73a8.14,8.14,0,0,1-1.15,1.77,9.43,9.43,0,0,1-2.4,2,3.24,3.24,0,0,1-1.88.48,3.14,3.14,0,0,1-1.85-1,4.38,4.38,0,0,1-1.28-3.67,2.75,2.75,0,0,1,2.15-2.29,1.84,1.84,0,0,1,1.25.21,1.42,1.42,0,0,1,.62.74C289.28,130.39,289.1,130.68,289.08,130.66Z" style="fill:#263238"></path><path d="M307.12,144.48a3.77,3.77,0,0,1-.92-1.73,7.49,7.49,0,0,1,2.94-8.45,3.65,3.65,0,0,1,1.79-.78c0,.08-.66.36-1.57,1.08a7.79,7.79,0,0,0-2.8,8.06C306.83,143.79,307.19,144.44,307.12,144.48Z" style="fill:#263238"></path><path d="M319.84,149.79a7.63,7.63,0,0,1-1.26-1.91,22.42,22.42,0,0,1-2.6-10.65,7.38,7.38,0,0,1,.24-2.28,44.45,44.45,0,0,0,.9,7.64A44.26,44.26,0,0,0,319.84,149.79Z" style="fill:#263238"></path><path d="M316.53,157c.06,0,.06.32-.15.74a3.07,3.07,0,0,1-1.3,1.28,3.13,3.13,0,0,1-1.8.33c-.47-.08-.71-.25-.69-.31a6.6,6.6,0,0,0,2.25-.48C316,158,316.39,157,316.53,157Z" style="fill:#ff9a6c"></path><path d="M301.28,161.7c.1.09-.41.74-1.35,1.07s-1.74.13-1.72,0,.73-.2,1.55-.5S301.18,161.59,301.28,161.7Z" style="fill:#ff9a6c"></path><path d="M295.82,187a11.68,11.68,0,0,0-6.34,3.4c-2,1.95-11.88,11.92-11.88,11.92l13.18,14.06,7.25-4.67,8.5-3.92Z" style="fill:#90CAF9"></path><path d="M350.85,184.36l-19.1-3.44s-2.14,5.91-12.07,7.63c-7.75,1.34-9.83-2.3-10.4-2.88A81.85,81.85,0,0,0,295.82,187L298,211.74,309.7,247s10.26,24,11.13,26.39c.21.59-7.87,2.94,15.28,3.73,12.32.42,43.36-17.35,43.38-20.59.35-2.73-1.68-4.05-3.08-3.43l-11-16Z" style="fill:#90CAF9"></path><path d="M350.46,248.68a2.56,2.56,0,0,1-.45-.15l-1.27-.51c-1.1-.44-2.67-1.14-4.59-2A147.92,147.92,0,0,1,329.59,238,145.24,145.24,0,0,1,316,228.48c-1.66-1.32-3-2.42-3.87-3.21l-1-.91c-.23-.22-.35-.33-.33-.35a2.27,2.27,0,0,1,.4.27l1.07.83c.93.74,2.28,1.8,4,3.08,3.37,2.57,8.12,6,13.61,9.41s10.65,6.16,14.44,8.05c1.89.94,3.44,1.69,4.51,2.19l1.23.6C350.33,248.58,350.47,248.66,350.46,248.68Z" style="fill:#263238"></path><path d="M371.65,219c.32,1.48-3.31-11.17-7.3-23.16-3.19-9.58-13.5-11.51-13.5-11.51a51.87,51.87,0,0,1-1.42,13.75c-1.82,7.89-.05,23.71-.05,23.71Z" style="fill:#90CAF9"></path><path d="M371.65,219a13.61,13.61,0,0,1-1.73.32l-4.73.67c-4,.55-9.52,1.27-15.63,2l-.15,0-.23,0-.05-.23a64.5,64.5,0,0,1-1.37-8.55c-.28-2.64-.44-5-.51-7s-.06-3.63,0-4.75c0-.56.06-1,.1-1.29a2,2,0,0,1,.07-.44,13,13,0,0,1,0,1.73c0,1.12,0,2.74.16,4.73s.32,4.37.62,7a72.06,72.06,0,0,0,1.4,8.47l-.28-.19.15,0c6.1-.76,11.64-1.43,15.65-1.88l4.75-.52A9.93,9.93,0,0,1,371.65,219Z" style="fill:#263238"></path><path d="M293.71,199.32a87.56,87.56,0,0,1,3.21,8.91,88.45,88.45,0,0,1,2.72,9.08,82.74,82.74,0,0,1-3.21-8.91A84.74,84.74,0,0,1,293.71,199.32Z" style="fill:#263238"></path><path d="M355.1,265.26a7.42,7.42,0,0,1-1.09.88,15.72,15.72,0,0,1-1.36.92c-.54.34-1.14.76-1.86,1.14a43.52,43.52,0,0,1-5.09,2.47,43.21,43.21,0,0,1-13.5,3.07,42.4,42.4,0,0,1-5.66,0c-.81,0-1.53-.15-2.17-.22s-1.18-.16-1.62-.25a6.42,6.42,0,0,1-1.37-.31,8.42,8.42,0,0,1,1.4.11c.44.06,1,.12,1.62.16s1.36.13,2.16.14a47.36,47.36,0,0,0,5.61-.1,50,50,0,0,0,6.79-1,52.46,52.46,0,0,0,6.56-2,47.37,47.37,0,0,0,5.1-2.35c.71-.35,1.33-.74,1.88-1.05s1-.61,1.39-.85A9,9,0,0,1,355.1,265.26Z" style="fill:#263238"></path><g style="opacity:0.2"><path d="M338.38,203.57a15.77,15.77,0,0,0-4.11.12c-2.42.12-4.38-.9-6.84-2a6.54,6.54,0,0,0-6.28.4,4.12,4.12,0,0,0-1.59,5.22c.7,1.23,2.08,1.89,3.1,2.88,2.37,2.31,2.67,6.29,5.31,8.28a6.57,6.57,0,0,0,5.46.94,12,12,0,0,0,4.94-2.78c2-1.78,3.74-4.12,4-6.8S341,204.15,338.38,203.57Z"></path></g><g style="opacity:0.2"><path d="M336.3,196.3a2.05,2.05,0,0,0-2.06-1.66l-.83.23a2,2,0,1,0,2.89,1.43Z"></path></g><path d="M263.27,224.32s-6-2.44-4.51-12.19,23.16-45.69,23.16-45.69L292.19,171S281.86,204.6,282,204.27s7.41,10.66,7.41,10.66-12.07,10.24-17.94,10.36S263.27,224.32,263.27,224.32Z" style="fill:#ffbf9d"></path><path d="M282.29,202.5a8.9,8.9,0,0,1-.25,2.29,23.78,23.78,0,0,1-1.57,5.35,18.28,18.28,0,0,1-3,4.69,7.73,7.73,0,0,1-1.69,1.58c-.16-.13,2.5-2.55,4.22-6.48a32,32,0,0,0,1.69-5.21A11.89,11.89,0,0,1,282.29,202.5Z" style="fill:#ff9a6c"></path><path d="M281.92,166.44s1.27-14.51,1.58-15.14,6.47-7.57,6.47-7.57h5.67l7.89-1.14s.65,2.14-1.09,3.09l3.53.59s.15,2.54-1.59,2.74l-3.78.45L296.17,152,294,154.13l3.07-1.74,8.2-1a2,2,0,0,1-.89,2.63,14.88,14.88,0,0,1-3.09,1.19L297,156.77l-2.64,2.43s.18,7.21-.38,9.6a4.09,4.09,0,0,1-2.13,3" style="fill:#ffbf9d"></path><path d="M291.82,171.8a4.9,4.9,0,0,0,.72-.55A4.71,4.71,0,0,0,293.8,169a21.75,21.75,0,0,0,.37-4.17c0-1.64,0-3.53,0-5.61v-.08l.06-.06,2.63-2.45,0,0,0,0,4.27-1.56h0a15.91,15.91,0,0,0,2.85-1.1,1.77,1.77,0,0,0,1-1,2.13,2.13,0,0,0-.05-1.45l.24.14-8.2,1,.09,0-3.07,1.74-1.85,1.05,1.55-1.45,2.23-2.1,0,0h0l4.43-2.59,0,0h.06l2.64-.32,1.16-.13a1.2,1.2,0,0,0,.82-.46,3.19,3.19,0,0,0,.52-2l.22.24-3.53-.6-.73-.12.65-.36a2,2,0,0,0,1-1.19,3.06,3.06,0,0,0,0-1.59l.28.17L295.68,144H290l.17-.08-3.59,4.06-1.64,1.9-.77.93-.36.45a.93.93,0,0,0-.18.46c-.44,3-.67,5.69-.92,7.88s-.4,3.87-.53,5.08L282,166a1.65,1.65,0,0,1-.08.46,2.29,2.29,0,0,1,0-.46q0-.51.09-1.35c.09-1.22.23-2.93.4-5.1s.4-4.86.82-7.92a1.19,1.19,0,0,1,.24-.61l.36-.47.77-.94,1.63-1.92,3.56-4.09.06-.07H290l5.67,0h0l7.89-1.15.22,0,.06.21a3.63,3.63,0,0,1,0,1.88,2.49,2.49,0,0,1-1.22,1.5l-.08-.48,3.53.6.22,0v.21a3.65,3.65,0,0,1-.64,2.36,1.7,1.7,0,0,1-1.15.64l-1.17.14-2.64.31.1,0-4.43,2.58.05,0-2.23,2.09-.3-.41,3.07-1.74.05,0H297l8.21-1,.18,0,.06.17a2.57,2.57,0,0,1,0,1.79,2.25,2.25,0,0,1-1.24,1.22,15.5,15.5,0,0,1-2.94,1.11h0L297,157l.07,0-2.65,2.42.06-.13c0,2.09,0,4-.06,5.63A20.79,20.79,0,0,1,294,169a4.64,4.64,0,0,1-1.37,2.28,2.89,2.89,0,0,1-.57.4C291.9,171.79,291.82,171.81,291.82,171.8Z" style="fill:#ff9a6c"></path><path d="M292.43,151.36a5.7,5.7,0,0,1,1-1.45,15.25,15.25,0,0,1,3.15-2.95,8.12,8.12,0,0,1,4.09-1.44,3.24,3.24,0,0,1,1.78.28c0,.09-.69-.05-1.75.09a9.06,9.06,0,0,0-3.83,1.51,21.25,21.25,0,0,0-3.17,2.76C293,150.93,292.49,151.41,292.43,151.36Z" style="fill:#ff9a6c"></path><path d="M295.42,143.92c.07.12-1.5,1.16-3.23,2.7a21.91,21.91,0,0,1-3.23,2.72,14.1,14.1,0,0,1,2.89-3.11A9.87,9.87,0,0,1,295.42,143.92Z" style="fill:#ff9a6c"></path><path d="M352.76,221.59l4.9,20.65L334,246.48l3.86,11.79s24.37,1.65,34.47-2.94c4.43-2,4.41-8.18,3.79-11.51l-5.47-24.67S352.82,221.82,352.76,221.59Z" style="fill:#ffbf9d"></path><g style="opacity:0.7000000000000001"><path d="M312.82,234.61,320,261.47a2.65,2.65,0,0,0,3.09,1.92l9.16-1.83a2.68,2.68,0,0,0,2.12-2.94l-3.52-28Z" style="fill:#fff"></path></g><path d="M316.6,243.3s3.59,11.69,4.8,16.14a2.26,2.26,0,0,0,2.59,1.63l6.52-1.18a2.26,2.26,0,0,0,1.83-2.59l-2-16.79Z" style="fill:#fff"></path><path d="M330.67,230.66a3.19,3.19,0,0,1-.55.51,14.47,14.47,0,0,1-1.63,1.2,19,19,0,0,1-2.66,1.41,20.8,20.8,0,0,1-3.5,1.17,21.74,21.74,0,0,1-3.65.51,19,19,0,0,1-3-.09,13.08,13.08,0,0,1-2-.34,3.23,3.23,0,0,1-.71-.21c0-.07,1.05.17,2.73.29a20.81,20.81,0,0,0,3,0,23.62,23.62,0,0,0,3.59-.53,24.09,24.09,0,0,0,3.45-1.12,22.46,22.46,0,0,0,2.65-1.33C329.81,231.28,330.62,230.61,330.67,230.66Z" style="fill:#263238"></path><path d="M340.18,248.64l0-1.42-3.6-4.91a12.43,12.43,0,0,0-2.65-3.38c-1.29-1.07-6.93-1.19-9-1.19a2.26,2.26,0,0,0-1.33.42l-5.8,4.16a.67.67,0,0,0-.08,1c.53.5,1.56,1,3.38.12,2.72-1.3,3.53-1.79,3.53-1.79l4.33.27-5.27.86-7,5.29a.83.83,0,0,0-.08,1.26c.58.56,1.71,1,3.69-.06a20.77,20.77,0,0,0,4.19-2.72s4.42-1.05,4.86-.74c.64.44.14.72.14.72l-5.36,1.35-4.71,3.32a1.44,1.44,0,0,0-.19,2.23,1.07,1.07,0,0,0,1,.24,21.43,21.43,0,0,0,4.47-2.34l3.18-.85,2.77-.17-4.58,1.57-3.65,2a1.24,1.24,0,0,0-.55,1.66c.21.38.64.65,1.52.44a28.73,28.73,0,0,0,4.67-1.45l2.61-.41s3.16,5.31,7.64,4.08l1.45-5.9Z" style="fill:#ffbf9d"></path></g></svg>
