<svg width="22" height="23" viewBox="0 0 22 23" fill="none" xmlns="http://www.w3.org/2000/svg">
<g clip-path="url(#clip0_218_351)">
<path d="M20.44 11.05L11.25 20.24C10.1242 21.3659 8.59723 21.9983 7.00505 21.9983C5.41286 21.9983 3.88589 21.3659 2.76005 20.24C1.6342 19.1142 1.00171 17.5872 1.00171 15.995C1.00171 14.4028 1.6342 12.8759 2.76005 11.75L11.95 2.56001C12.7006 1.80945 13.7186 1.38779 14.78 1.38779C15.8415 1.38779 16.8595 1.80945 17.61 2.56001C18.3606 3.31057 18.7823 4.32855 18.7823 5.39001C18.7823 6.45147 18.3606 7.46945 17.61 8.22001L8.41005 17.41C8.03476 17.7853 7.52577 17.9961 6.99505 17.9961C6.46432 17.9961 5.95533 17.7853 5.58005 17.41C5.20476 17.0347 4.99393 16.5257 4.99393 15.995C4.99393 15.4643 5.20476 14.9553 5.58005 14.58L14.07 6.10001" stroke="#42281F" stroke-width="2" stroke-linecap="round" stroke-linejoin="round"/>
</g>
<defs>
<clipPath id="clip0_218_351">
<rect width="22" height="23" fill="white"/>
</clipPath>
</defs>
</svg>
