<svg width="26" height="26" viewBox="0 0 26 26" fill="none" xmlns="http://www.w3.org/2000/svg">
<path d="M8.5799 14.5922C10.1074 14.5922 11.3316 15.8282 11.3316 17.3666V21.0597C11.3316 22.5872 10.1074 23.833 8.5799 23.833H4.91823C3.40156 23.833 2.16656 22.5872 2.16656 21.0597V17.3666C2.16656 15.8282 3.40156 14.5922 4.91823 14.5922H8.5799ZM21.0817 14.5922C22.5983 14.5922 23.8333 15.8282 23.8333 17.3666V21.0597C23.8333 22.5872 22.5983 23.833 21.0817 23.833H17.42C15.8925 23.833 14.6683 22.5872 14.6683 21.0597V17.3666C14.6683 15.8282 15.8925 14.5922 17.42 14.5922H21.0817ZM8.5799 2.16666C10.1074 2.16666 11.3316 3.41249 11.3316 4.94107V8.63416C11.3316 10.1725 10.1074 11.4075 8.5799 11.4075H4.91823C3.40156 11.4075 2.16656 10.1725 2.16656 8.63416V4.94107C2.16656 3.41249 3.40156 2.16666 4.91823 2.16666H8.5799ZM21.0817 2.16666C22.5983 2.16666 23.8333 3.41249 23.8333 4.94107V8.63416C23.8333 10.1725 22.5983 11.4075 21.0817 11.4075H17.42C15.8925 11.4075 14.6683 10.1725 14.6683 8.63416V4.94107C14.6683 3.41249 15.8925 2.16666 17.42 2.16666H21.0817Z" fill="#CACBCE"/>
</svg>
